<mxfile host="app.diagrams.net" modified="2022-10-10T18:08:31.831Z" agent="5.0 (Windows NT 10.0; Win64; x64) AppleWebKit/537.36 (KHTML, like Gecko) Chrome/106.0.0.0 Safari/537.36 Edg/106.0.1370.37" etag="FwRm_kaJ9wFPCr8Ou_RI" version="20.4.0" type="github">
  <diagram id="vFMJvWNZEWGXN7wpi7Sf" name="Page-1">
    <mxGraphModel dx="2690" dy="1122" grid="0" gridSize="10" guides="1" tooltips="1" connect="1" arrows="1" fold="1" page="0" pageScale="1" pageWidth="850" pageHeight="1100" math="0" shadow="0">
      <root>
        <mxCell id="0" />
        <mxCell id="1" parent="0" />
        <mxCell id="6wWtexQI0jpHRcs54LzX-5" style="edgeStyle=none;rounded=0;orthogonalLoop=1;jettySize=auto;html=1;exitX=1;exitY=0.5;exitDx=0;exitDy=0;entryX=0;entryY=0.5;entryDx=0;entryDy=0;entryPerimeter=0;startArrow=none;startFill=0;" edge="1" parent="1" source="00VoV6gP4ef_sgZay2wy-2" target="_ImDlbZ63Fv3AJCy4hCC-3">
          <mxGeometry relative="1" as="geometry" />
        </mxCell>
        <mxCell id="00VoV6gP4ef_sgZay2wy-2" value="" style="shape=image;verticalLabelPosition=bottom;labelBackgroundColor=default;verticalAlign=top;aspect=fixed;imageAspect=0;image=data:image/png,iVBORw0KGgoAAAANSUhEUgAAAX4AAABqCAYAAAC76jrFAAAAAXNSR0IArs4c6QAAAARnQU1BAACxjwv8YQUAAAAJcEhZcwAADsMAAA7DAcdvqGQAAK1WSURBVHhe7Z0HoF1Ftf7X6e2W5KY3Qqih14hU6YhdbIgK2Ovz2Xt5T30+1L9dsYuoiEoRRFCaIL333iFAern19HP+32/2WTc7NwEiiM/IXcnc3aasWbPmW2tmz56T2Hbbbds2TuM0TuM0Tv+2lEgkOmcRJTvHcRqncRqncfo3pXa7HYLTOPCP0ziN0zg9R8jBP1FvN9sta1qjMWzFVNqs0lBomY3Uze5+yOzO+6y1dJVZvWnJlg8XdGzr+cY6SUQ1FFpPYvcYGjWbzXBMpdPWbrUskVT8KVPM5s40e97OZqWcWS5l7aaelbLWVJ61WtuyWaUNuTQspbNUOIeSukpIbMlwL/F07S5y78i+3cki4W3BUXw0CDpVS4ZSMgqjfKguVh4xG6rbsu/80qbUdC+rWC1S6Kj6VHSeL3Sp3du2pDpk0/7rvSYFsVYmF+pAng3Fq1vNuupp6//x6VZ8ZJllyFtqZOmENUZGLJ1UqfmiNYeGLdXVY43hYUuXCuJR8Qj5rNnWW5ntsJ3ZZJXXlbSGbg0ns+I9Yb2KkhwyW3jct21OqIEk2yaQXgUhaJSZR15BeFBbNZJtS2+1pdlWm5vNnmHWU1SbKVJT8Stmtx5/gs0aalupXLMcdatXlCxhdcluaaNhs97xVrMZE6ydT1pFAs5IuOmW9H64aoMn/M66Vw1Zo3/Q0r19ZoNl1aVkQ0rXNWeO2ayZNnTTDZYcHrJiQXpSL4tN8ZVO2SrVecI+Cyy5846qr2SRljSpA3zXqta87CqrXHGLlYbVHgkJo9GWLFJWn1Cy2+srbdcPvS9qVOp/zyO27PyLFKdqU+arngftI51UBXLKN0W+kUjWkMogJMiAME7PBdpuO/WvGCWGy0PtnNofHQHcbeFSu++MP9n1Z59vjWX91lg1iHUIHTiTTFtKCkNoAfwbMbXVN9bpE2PIgT8pEOGckMkIQnu7bLnA4LCj32jzXvxCdfJpyqwloG1ZujtvQ5Wq5fMZwRbdNVaKCm0jO50i7mcM/NRBgfwC5sXuA/wBE6PLgMWOiwC7UNsGL7jc/vKZr1p20XKr1UdCPVMCdgxTU8Bt9ZZ1JTI2PKlkr/r9DwSgmyiTTDAo5AnVWzXLD9Tsond/1lZfcbM1ykOWzSSt1hSYZrOWl87Uqg2r1GrW3dUrB6MhvtrBsLSTTcurnMF63Qpz59r8Q15gW7xwP8vttqO1ZVDLKqVIBZdX7ZeHvMJ6l6+2Zk0GK4B82urVmmVVyXxWPGdTVlU+bbUR9jmZ0XOdVHJpG9D1jO23tX1efYRN3n8vtV+38uy3M7/0NVt18Q3WValLJAJm8ZxSO7ZzOWv19NhrPv0RSx32ArMJeZk3ilV7VmUxHl9qP3rJkdbXL8MmUeYkr7oMfjOXt6Xi7Yhjj7GpM2fYd7/yFZshPpMygJZQfZVHMpexZTIum7/kUDvovz4lY5oP9VGpJjslg1y1iz/3BXvwD+db70hDRqPHqlXxl0jZChnn9K5b2Ju/93UZsJI9esHF9qsvfdXecPhLrC2+zr3iEtv60P3tBR94j1l3SY0uh6XTUKOOAa0X7qF7T1P/xmmjo7HAn8wKAFJNwcJA2+7/3kl26js+Yld97zdWuneZTVtatU3qOZuXKNosK1hfPWm9NXlhQpWuskBhIw69wy2b8CRhcjUpTzgVjpMqCZvWyNiMVi48Kzy2ymYtGbLLvvJ9O+Flb7Dyb86UpybjKNCxWsUKAq2ATUiYURJDgaau2mn1uWT494w6HR23EwB9aLRfc79zIFDKKC8eiaOQ7LGbbrfWkpVWqjZtQi1pE1pJK2nEVyzXbUo7Z7nhmqUHq9YaGLHWo4sig8H4UMemnAHABGC3VNYyFenRkAye0nbrWY/qnZcBTA0OWWG4bJOkMymNHLv7yzZxsG6bCtDS8pjzgxW1RdUatz9gN/3iNLvoKz+01oVXWmKkaUU8c3iVcWiu7LcelTGpkbTJapeJ4nmqZDpZMkUni8qzd7BhU4YF8pWUzW0Xrbhs0HqWDtmMgZYNXHqznf35r9ld3/yp2Qp556Wi7bjtNlZfuTrUN6tQqDWtAP/lhtUWLrFldz4gAdJukqXqDfDb0IitvOFWy61WOytMqqcsuWrEJlQTli43raX4Uw8+wGzfPS0h0O9uZawozx2dK2iEhd71DtbszgsuNauqbvLmyTaZUjk0pup970XX2ETJq6Q2yssoZYfrNjH00bJttZVGRwWB+vIhO+v4n9vum21tl/zpHLvi7HNtxxmb2mWnnGn9V1yrtkJwOnRCpBAqIFiA6Nk4PXcpmU5pGNpfs9uO+55d+qOTrH7LgzZjRB1XSt0thSuN1C2noXB6uGLpio5SxIzudcuH7BasbKyhS6Gn/cQhqzoDBHl5q9Sd6y71oF51/14B+exW2iYLxGYNVOykT/6XXfYReW8DQ+q8bcUQKI5CsoN8B+j/UX1OHdm7MCGU1gF9P3qpa4E+xJSDvPlld91v2VrDJqbzVlSirlbKSu2U9SSz1u4fDHXvloeflBf64O13RMCvktIaHmYynfGKZIVxy4fQtmyjZYlyxTL1hmU1giwoSZc83KnFgpXEREHPk+WyRpOrbUq6aFPzJR3zNiddsqnSt6WXXG2nyBO3628RMDKdyPiCfJoCUYGhjFNqpGJFGZduecEFld8eqSrPukYnOd3LWHZEhkmj1W4ZhMntrE2TwzK90rb8I8vs7tP/bHd8QfmLj3nP38P68kXVOWET1A9IOyldsB6lmyF+Hrv97o5wm9ieSMi5Lrv7qhtsQjsTQpf6QY/K7ct2BSPYx5TSlpuaTe61udvPt4aM34RU0XqTBSuoOl0C9N6G+Jbu2OPLOqjcIc7vftjyq8qWk5EraXSYrtWDXEsJ9bdiyXbbSyMWpoTuf9j6H3rMDnn/B61Lo7QdttjaetNZe9XBh9sDN6ut4FXtzIFso+bnKh7G6blKSRuo2n3H/8yu/MUpNmH5iG1R6LP06uHQyXLtyItNNJmrVqdWBy5KGTO6n9CwOkwNbaShrZGOT9+sLzDtwbRONptda6qHlyMpeU2Dq1ba7L6Jllixyub3TLS7/3yenfqu95utGmSiX6JthikRcDHMPYwB5WdCcbD34PfIP+rkUVGAfrzI8Iw/AvzhRUssLVBpNdSWum5X5d3XopCSx9iVzStkLSUQf/g2gYkAHdAheSiTk07I6tCVzlhvLmfFdNpalYqlFEGwbCMjw7ayf6UlmKrozlsmn7O0PF2Attzfb9XhYRkMebUC8jkaPSQeWWQX/+QXMqRy3wW6lmqF908J8Yf8E+mURFyzcnlEYVgDKsURn+2sypXH3ZSOoto9Akr4qq9aZX2KsnX3BMtrhHP1H8601mWXmc2ebXNnzbTKoPKQMWoNDcugyDDJqy/JsDx0o4wPxrzRiGRIpXX/vitvkFFrW078tuQMZWQ4GjKONcly7u47mqyoXPWW7XLo/rZ09WpL4gxIRhmlTyn/rEYrE1X31jXXSXa62axJW8SzdHLpxVfK29eIUUY3p1FAUvVnKmtYMsqXSpbfdSd5/KqV7vd0dZvdfIvNmDbdFj3+uG2z4442ojoU1AaBWTz8wDR/OdJY4/RcpPiKHih56/E/tXN/eKLNspxNSWStumq1vBspobw66TWzE+pMCWtLcxPJtpy+utWq8lY2ZlKHaCWfPJTrZfXxejhngpz6c93QP+aoe3t7bfmSpfK2MtaWzGY2JC95YNd97TtmQwLI4B0rjf4y3+7oi/ijrvjMaH3deOw94C8UOzYi1/c/aKsWPhZAviHgSaeTlhNgYOhQkmCrZOAqAlYM2YoHHxHoderUFADrrM413qeAsTpStiqevDzUtgxFSR5+q2NAu/sm2LDAuT/VtEfrgzZUSFqrkLGqwL6uOKWugsqsW/+KpZaUkSjJ07//b1eaYWx44ax4jUYtgH1F5zWBnoaqls5mrNDTZbmJE6xaTNuiRtkWmwxCVy7M7a8WPzXFLxVlbNTmtYHVlpVBmlHssvMF/iaHZsc9drWmcDQlkM1K4ZmMS6tOeVWwunJ1kFOQJADNCERGqawAiCc1GmrKgPFeZEi8tVXuDgfuLWBWfPEz+5D9LN1TsirGSqOBrAwpaXhHlpN+3HbNtcpbGclQhjc/MiB3XnmdRlot6xWPtAMhI1nVNeTYZLutzSYI7HlT/7ydbVlt2P525aU2YfZMO+SNR9kd999rZ/7tr7b5ztur8Wh91wHlrTBWDcbpuUVx8E/edMZfbKqGwsVaM3hf6aI8rp6crW5XbECeVlmgV1GHLavjKJqULmGpXMrq6sg1GYKNMgjQgO8nC8ksnmMrhERGnmo+E0JKgJKRx4V3l5fHhXcJ0M3Kdlv73kV2xx/ON7tagCWMAHTx+vH/w4WMSGQ6eA1MZ3zmRJNEXTyiqIt7hxeN6e2hVBRg0VLLaNSWU13KAtdKW6GJoRNMKCRymfAikhVfXfLQWyv6OwZNzrXAK5DkElYFZORpM0Ut2QL0vBDPyPOuK/9KXWCtKEtaMhabTLXFfVl7uNiyxSkBvXQrLSCrtJs2LJn0TOuTTIvWFjhPFAg+ftX1Ea/ip6E2ywhEkyW50+LH5N03Uwnr1yjgUQH6okTD+qd22/Lp3fZwyaxfOjxSFGCKx7LqJjNu6ZIMWz5t9cqQPXTb7WZLl1j28AOtNaUn5JeX4avUq3J4ktaQg1PIZ+2uy2WAGpJa4EPwfO2tNkVOEkZtRPlW6RcayQymNVKY2mddu8njZ4UUspkxxaZtv7WtVtmDMq5VyacsAdaZZ5dsHrz7LskTRZG8aaeBEVt638OWk9LUZUgGhoeCoVtd1cimK2O7vvQwRdLIM6lGKCXt4z/5tl236EG7efFCO/faK+y0666wQ9/5JsvImIW3+dICjRlCiN4rBSWMhXF6rlIytUzDYGlJSd7OxJ5eOTU1G5F31ZIHmFRnSKlTQ3hcdXUGOncqJ+MgjyspL2TjDBpKy8N7suCeb0UgRKgKYOKhoiF+W+CUkTcpU2hlyXFWpju8XDzzf78ZlgvKXoaplngXY+qDBZ3PlLwbx8NTkkcSji2//U5rrx60vMAtJTBMMz0jT1fNG2hkZETectWaAqaCEpYfW2L28OMC/+HRspvymKMXhvqPrsgDR3aJpgzrcNW68wJq6dVq5TV5i83thT//sb39sgvtzZefbzsc8SIb6c3bQL0S3m9KlMFQjAwP2+TuHivI67336hsjS6U8h/WsroLwsJn9aQmMm3U5H7WG9U2fbq9411vsmD+fYUdffI698fSTrDVjkpVlpOvoqfiqy2MfEh+tRtMKyq+5ctDsUdVn281sWa6p0cFwmMqrasSS1WhlRCO+nmLRHrjhFlluMUGhyuO+q2+w3EgjrHJjIXSorwykTeiy/OxpZhN7sfkCeBhv2eydtrNKIS1nQ/xKvowWU9LBtEZJ/YsWmz2mIMchLKN+fKlVlq+SWZGO6nkxl7e+CRPDaGJADpftvXtQqGY6q/pULb9gR/vwr06w137wfXboW99knz31JNv7PW8PS4zDSwn+S7boYKQxca0Zp+ciudefLFWaTEeGOdmWOjkAn5aHxfxlUqOAZLVhWSlMUcqWkXcLODA1kJDHm1QH3yiDOrEPo58oNNTxIACRuX6OdPIw989QXfJJtZJhqSL3icOyvq6qvLoHF5ldeUNYtZGtytME6MEBYUda5eMvJ5giiZGXuyHkXZcO7YaFECflFo54pnyDQIJQBvUSHw9ce6NNzRetPlwOUw+898iJMznOsvLRvDLTNkl5o7znYdXPwKXXqEDBkgAfQMnLKQg8MyqSXJhWATyZLsk25TgIvJM1pU8VbQXTJJMmyVNV7bsztvl/f9RSm8+0gVrVSum84qldFL87mxdqRgsI2qyNZ0VUWf66+ChXa0pesHSFqZh0KKM3W7JVq1bLqxYfE5W2pPgzeuzFbzvWBgTM2VxBBkJH1SerNsynNYpRvn3tjNrpYfFes91ffqile7sDtvP+YahStrYcn4aOi265U+0o+ckgMa11zYUXWVFGh6mesMRZeQ4MDtuyZtkOetORCF5tofu0suS47Ztep9GARplKUxAPePK8P+Hld4/qtuL6myV7yVxyuv70P9lMAX1D9UW/CgmNakZqltFIZPoO88MLY8tkxY5GjHxjkVfrT5lgtmBnS+y5m9ncWWYasTN6CWv80QrUgOanmXQtKXfCOD2XKcnqFuYzAXIIRU605MPqkjXKHrgOw9EOMW/oALTRBdVjLFD+PYR3GhE9SqFDSYCmqQ6ujnzTX/4aPvRJJDOhrGqdtXsidchWVQgzhpgeIUB4vk9JtEUnjLKzPpIRD0FEvZlNlltr/Y8tslb/SHjxGAyS/qXayQCSrNIhBTqBYUmrwiytXP7gQsVVfIF8UoAfcu3UX0liclEZLA5IZmVAChpWpm1Qnnl4KanRoiyGFK1tk7fbPJouEz95ySXJlIo8+nalbqVkzhY/+KhkKPCXgeoRIKbzBRseGAr5AsaZRMYKGA0B6gjWNK9yuxQmlcz2e77lJvXKhjTCqKCmPNU8AawxHhkZj+HVQ4qftzm772L9AvmkjEIDx0D1C568jGEW43PjrVHlHnjIUjKGOeXDAgcMf7sueQhoM9Nk1GZOUUeRxHQrtArffEzsttLs6WHU0ZJs5UKEl8HFthwHgfojt9wefTA5WLFld94djA1OBu8b6iMaXYrvqvRiuxfspfyUp6oX6i8KL4QZkWMA8PKZXkrKWOh+YMGJi84NmeIQQkbj9JylZJEOJ8VqqQPjvWXUSfFI0vKmglejkFJgCsBVRZfhmvsbY4B3HUJffjohfKGbalhdIeSE7BQkshD4CGjpA/Im8XKrlTDNwEdBq5nPBVTk1dYFKoyeCAB9ozPCgACev4s6nZpUHlhWGgjQ7xiUAEYsM1q0zIaXrpCXrdGdKtRU2Rn0gKWRumZ6DxmRqq30GKSc9OLBu+5lzm+0PI4R7vMnnATZhMdKR52a0iXWxPTXKroncEopAnPguYRNm7eJ5QryyDWyzLKaR+U7D1XJJ61RpgmkTQA7IkBMydtFXoA3hgbiHUJD8m1klbeil5OSMbg4qSdMIw2r3JyMT1r5JwWKDXnhDZWXVn3xfPmSdsLzdrV0T68GM3nhdsZSkj9yychgdGtEvOpvV6hSabvj0ivCajaK5jnOECOqmuQzbdutzDaZGYTPl9yMDowpoIldNnf3nayhcpBHyFfMM4pOyeA9eN1N0hFZ3seX2WIBf5UP1AB40itOW0agXcjbzINfEHVG5Y+NY90O5UeWWTd514Le6B46Hpw0AswSOtd+e5yeuwTOJ5lLpNPyQquFFxM0KSI8gzAs7KwQQBWltzHizsYYQv8JnePpBIh3HQSu6WjkGOWsOJLajZdfpgfqoniAAiDK5YUxyfE8WUEDwIepI3mGHAE1CG9zg6jDS+jYojXlr+ETv9zvhxM1d+3+h4NxzwlIMfpN5pg5MpWXz8qg8alSxFtTGTG1ANgufXxR8EwB4tGyY9RSXAxgQwJJygMNL9EVsvlcqG8wQIATpPyaZY2CVGcMC9tApAT0bZ23BHZVea9ztt5C8eTRir/KCLPmqoD0tC3jwVw576HCijOF8EW1nrMSKWzpwDspQFr5ZTTKcL0Fk4HumvKZvMkmUWNoNLH17rvasJ4zqsD4gLE4PhM0Ynv4uptlUVr2wJXXW0Zya0keZEd7tTMp629Wbet9FiiyRhqhryAfBc5Vj+3239MGJXheRvuoLjhZYmp44WKzxSvMZFRZHcaHYvVkUyOVmmxe0eqSW9fcOWabzlDdVTcsrdIySkMc1AtjGxiCdC+EseTPRU8UZZz+fSlMycYo2dTQlZdUzNHSmerMf+OtgVcKVfW7Gud6jpLRr1BtPC73cDe2AO/Ug370dANEHtGoSN6bjgBG+MJTYbMpU81Wrgoef04ylY8flneHKTLxANEY3iCArIPCBlMnOjms1ZE7/EGchktGAESSQ/zIbXeH8li1ExEAn7SyKpTq67URGTQAHwMURjfin69Q61UZiPAFr5LEPQAKYNSjQ5OVSwq1jExOQd6qjvV61fJ4+zgZ8rZtlbxaAenyO+8L+/nwcrnarocli6yAqsk7HigkbMp28qJZTqq0vd1dVpf3XmtVrSoQZXVMU6AK+Ae9rMqIVFuW5wtpXsauXG2TlSan0UtN6UY6I69QRiFrK9RgiR23UULFl3HZ5ZAD7fHqcPDeMXq0MdN2vLpfKUNp9z9uA7ffZ1ll7WDL6py6eK8UUjZ7LwE/4pRBSeJEqQ8FL1wWpHvBLtaeULQmK4pUHLLFdGTTmfBhoF15nZUvv9p6KTctQyvgb0r2FeWxUnxuyr5QGDlGSqLIuOlEgdNRGnvuTRQ7rqUn4/ScpSQv41rS5BZoJEVrybvC68fTBwxqAoiGHoXOJWBjHngtZdtIiakMgPrpBOrPhnUJhCI5ARRBfh3KCDCSA4N26/8cZwt/dKLZQ3jKVUvzMdCIOnoFr7nj6Ur+DQEi3uPfDfxQpzPTJOtrFox5oM5cvlWa9uDtdwVvOKQRrzkBEG8VKhLKpM3mWGpCT1jBmGQ6RJGoJvzxZeoDN90mxOvAR4xd5Alk4vEzEirzTiOjOyx5HBqQ5yz5DOneCMgphLzlHuu/60FLVllMwPJJ6aE4wgmpCHVXZJo2e8H2YQ4evUyIEb45yDJl0qrLi5exaNStUiuHmZ0eBq4VMTGkkxEZhnMvDF+cZ5RfWx56IZuJPvxSffmmoLTFXLO5s8Wj8kfuAueR7pytUH44Pmrl8M6BpbplNin843lmj60Q8NNO4kW8BiOiPKeQ12YaPQD2oqAWCrBE3+Gl7LwdtrGKRgd4/YA+9zG+hZrqeuEldvdlAn7pFhNQ5M3KuX6NWvqzCdt6vz2DEUnISLV8gzryJagc2ZKIKDd2PzSwk67jl+P03CbhWDRU9rlTVr0wDwnhGXMahpIiOndaehemGjdyLQKoqd/TCfSsjLz8TDOtTppWJ2ZDMI4YBgsf53QLdB7966V29bd+bCe/6Cg75aBX28Nf/bHZdXcE8LVV/YEPXuQRnhaJF5qBABR34DjQ6JSCx+CgthVa2sJ7HwibmTHaSIhXPM9qs2FNgeMWu+5km263dQQ+ik4+mVTW+EK1pLrefeX1QrOoYOxIABgOusYERl6BUicbVm9ULKVyeiSbyUwPsT/NlTeZXXGzPXLiKZZavMIKZCIAB/DafCEuT5fpky32XWDZPeXpyvNnOMXXvbxQ7c6wXkY6KgBt1WsB9LtVZP3+x8wuvtrsvKvMzrrErvzNHyy1fMByfAEro9edK4QX2eh6TqOaA456dbTCCIOE4GZNtdm77WDD8ribzKt3RmJtAa1Mg938x/OtT6OUvGSITNADvPIhjVR23uv5Gh4IfgF19SMnTCsjJYD4+QfuH76XQEfoT3xhzCIKtgVZfOtdNvTgo9bVUL0aEoj49PcWPZvOMdtJBpB+qnvSsCDjBqMqAD4Sd0S6xqBEjhptwYNOwCDrH0k8jNNzl5LM7aMkKLjPLaPYof92lGYdkJdnAnBiFDw8OTH3Gw9r0nlayogHp7FxNyQ4re/ZmgC06RgLTmPvrxvcy9d5Jy9ejjsx1VOUd8ZmZdPk5PatGLGigOmOk8+0n7/h7XbSK99gt/76VBvmA6XV5bD6J8nHUax8Efg15C3Hy1tDa3dkjnjZhA5HRNIzAn8kS4FI6OTEx1usVq28eJmMPHPqCrrN8suwFLMgr3iHrWzGjlvLK1XJqmCmlbIiX6jK803Le190191Clk5eIupPeRwjjkIyK+RLYYUQDgVbOFQWLbZz//cr9ot3vMdOetf77YY/nBNtjqa4lM1umrwArXTnrX9C3g5++9FmU3qsxQtyZYpx4gUz3xVk0VndJy1f5dY0urryrHPs9E98wU58/yft9x//bxu65+GwB1EBo1yr2YhkulIjq0pfj5W238pmv/blEo7kHRRdQZltsefuxsdhUV0iyfMV+4Rily28586QHy9lw+hJ1BYfq2X+Zu+yA1dBDk3JKHqqc/EaZC+jldpjN1slYdcxWIoR5KZ8mCqsDei5DGRaxiYl8Mf5KsvQprpLNmn+vLAyiIzCiislbNebweiGcsinQ1yPtgE3nBTHeeJJLMk4PUcpGTwseSJMwdYbZVP/kj7WoqChZkYAQWBNd4MpiYw8FqXhy9VGW4mSvCCU38XeDnI1wlJQeXdhvby0jeDep79DwLsMw13SK12ytSYkmnwAFIWQpzouTLXV6Ql4SoSa3CbStxJ61gnwwfQEqzfi8+feEfC0ohDNYfMFZKsTVCAxopgxEAfECPF3BMHbyjGPzfsQvFUFyStpNeXLt7karquDs5yvLV5Zu8+mW/kVQzZXOD/h9odt4bd+ame+6q32p4NeYYu++C2zG+40WzkkFBAA0BiiCFo7RFXW9N41pHt45owZSBXqSYBv3c8qL9qOzR0Dyl9zrU2GHzVMVe0LKNeGy1bq7bHlDZW/y+bWvcOmYbqF6IVUzmpDI9bTlbdqecDaA8vMFt6nzPVQwCYXIfCAh4p320DuTBU25Jmni2qzbJjOmpTLWn5wwKaPlG3aSNWmC1DZHqQo4A7vBMT5Kg0nV82ZYEf96GtykXcJINzKFpS5ZChdaFRZwdMMAf0qpXNWGRmygnSyT/VMLl9lU4Zb1jPSst6kQFq6OTxUtsKEPusXXytlVCYdvr8d9LX/DvvptAopyUXMF6X0qYZtuf9e4UtZ9CZ8vcz0ioTYFL993X2hHugGBhbZVDVaKvDidb99lT5rbRnuNP1Dz5mwYRCQwEh2TTCbPtWmazRVll605RSEFUxSrKxkVq6OaJgo7ZHRyEp2fKNQKvXakqEB252vdVMyfpJXJkxLSbel69Ly0OaB1ASO5ugAIRgcqHMf4t5az8bpOUtJAEKqL0KhdYYHJBDUaDtMB9SrlaDw7OWSVuclflmAQRo6SB0vSkNuvLawt40AAbWvA+6duWsC2Urdw6iCJaOkDfqq+6wswTi4p096yqLjMedb6yx3jOeXL6iLKC/mqvmylncTwcAoX/Z0YT40pU6iEoMxIk20zE7lymsiAJhunCBWlOh2IAd8pyCWEJj9VRp1YPVFRZL3hbfMVIkACZ5ZDtmSV8ZceE7dsztTsG4BUVH9Fy934nDN+pYO2Zz+mhUeXmrX/OYP9tN3fcB++rZ321W//p1VlyxXGZFnFljo8AdxCrCP3uKkcxFjN7rNDZ1keAHKidpn9f33W5dkwX40CfGO7PjqlpeOGT4Qmj7RErtsb3XJt6l68J6nLpCFSkKyEktSH1moesu8SdZhPJGMDD4y1oXklrSBoWFrSFlYrVOWDiUln1JDBkDt0VWVo1GpW1/vhPCFcFh1o5Tb7LC9HfGFz5ntuC3ZSM8UD09EoIrO8FEZX13TYPBck7xriqOCLSeAnSRAnJwu2ORk0XIYioqGW6LBssro6rJXH3O07fmB92kk0ReMFnpG/arNmoyMYHT2TJs+b1MZdt5rRVMyTrQ95LrCkV4wnf1z+C5Bhof9eCLCxRHvtEhSzzh2FW3+vs+Xs5AMW2NAQZ/EBcakqQxpryj/pA2xvffkSda96czooyx0W/8x5uHLc8UiBNJ9P/h93lKQj4fOW4tOGE0yTs9RSrL0juCAx6qUoJBSNLyXMP2jG3Rqhq5QRlahWGC9s0C4SeeSp1JQx5RHlWYlh7yobKkQvoLkpVTwvJWeaQe+bs0LlPkyMVqLDJAD6AJO5ZdgNYj0vNqqhFBXp+RHXxLqHPT5jHjhhV1loF/AWpGzlrQudTxhlEYu8rjFY8QnIET+nSB8IKTlPWbl/uY0OsngSWpkkWrhgSlzprAE1DJzEaApJAUgKY1EmM/PNqJ0hHyFLYblUSsOc/Rsb9EG8ClZAMd3EOmycpMHmpGXn6hKfgzV5aVmunttWDJpyINLFEoCmJQNyate8thie+iue+1ePhhSFfAqO9WISG0UvPlOULWift1pO665hOIdmxVbAZIEznfdeIt45svaaDkhhrUt+Q1ISL28oAQAZ0yxdl+3rdJIaFgZsnoGjz4nSOFl5PKbbwuyQmdCOVSL9hX4JgNC6ljIRVsZCLgBxJzqTbMkJJeUjCAjPkZDbH1RH6mFF8x3Xn+T3faLk6LljUJdtoqQ461ErbBNhhtvRptl6ciQBJQQv9S5pVENU2V8/MU0UIsXu3oyafLEsAncsqWL7aqL/2qNS68wG64oT7zmSF4Y/GDFe0q21fN2sZXtameePApO9A2nhtLwLmDHffcM00RkFrY50T+gPiMeWQih/1RaN8y23HtPjWCkMRneTPBgDblBgTA4w7qx6fYygDJGCDn0IZ4hAx1j0cdpnP5uGtU+xxhXdjoZyhi8ZHmvRExJ2YNBkMIPDGjYL2XMCeBT6uSDAt0l1bItUZdeqSH0IoH/Y/mELe7O2LIJBVuisKgnZ4+W0vZwKWEPZVv2kEbxC3vStrgvb4snF+zxCWlbWEraQo1oFxeStrwoz1GGpNqVs4aMSlNeaFWedkWeand3d1iqxwuv4G1rVALP7LEzceJEna/pLMHrxw/qeOtgU1ih0zkPWCUK7y2i00CA/5quDilF6Mnq+AIaAD4Q6CQQY4SBL8YH+/kUG3nhTYq/jExcT49Vuou2VMbtfhm0ZZN77LGJeatvNtP2PuZ19oGTT7RPn3eOHfn5z9n2Bx4Q5RtnRkQrRF9lwleMNyoVI2/UcOQZ+RBZ3vEjd98jA9gBaT3MFktWkZwqkut2C3an4RXaNnOLzW1IiXh5mSnJOEm+7WozTFkFwyTii9wAQ1RffwA8tn8gLrqDNw9gZ/hVL4VhxVsueQzIcWiUumxVtWZdMoJ83ctLZrYsvuGCi+28z34x2heIeTXaUCMGdJKPwVrijdFkFQMvg5DPy9nIZsK6/JoMzYiMVFkhKV3BM161apVVZVRnTZpoi+64y37/9e/YAz/7FZ6F9DoadaYZVQQlENgeuK8N5TTKUdGM+ABh3uHwVbaDM6OEEcVNT+y1vj0kM0ZU0gF+qgVCt1IyLFAwcHzDoDi26RzrnjZVvOVDk4S+FmKtIcrE6NSl9zvss4cMMdM70TNEQf9bWyfHaZz+fkpc3rND5Mc4+qG+OgUqWw0NhcMUirwYASrgxhxoXZ0vnysqZiLsONgAjOX1lNOJ4IXhJc5fsLNlerusR4reN32q9U6abIXurjCsD9MhYapEEdFqAdLI4FDY475/xSqrDQ7bysVLbXjZclvxyOM2vGS5JYerVhRXJQ37+SGVPPO97J8iKgmY+MrTN1MD8BmphLXqjFgUn3tuCAApRhpQMHKdDjgW+EPMtW7AL2mUlvcCzDVLFsw3kwnTQCGOOidfXCYyGWsp8PHOChnGeilrk7bYxPq23sx2e+nBlttUHvaMaUpCOgpSCF6y3MdwKyovkHjEzGiQMUoONbFYuhddOdsBM+q42uL5oWX2y31fZZsyCmkMB5BOFYr2eLli5Zl99toff8tswZaogA1952Q7//if62TYppe6ran2YY+epgBs+ZxJdsSVZ1utFwCT8R+s2Q1v+qCtvvRaefOKIy++K99rjQpGuRnWu1eSNUvL+16iPHhXU9TIoaA2zAz229TuHnGdsSGN7urdObuj0m+7vvl1tsenPmQmoy8LYWc9/6U2ddEq2QKBfrthqXz07oCR46qRYRss5qwgHat0ppG6ay3rS+dlTMo2zHJSOQMYt0dWr7ahGX127E9V1713C+8+mNICphMjGr2uHLHfv/L11vPQcutRXugEgM9KNnQBXeHbllWKP/kFe9jeJyqfkgYbMmYyBWGVEVNo6ACjiAGNiPMpjS5qVUtWk3b7p79qd/7ujzaplrCcZBGErbZxPcOoD2r0uFSyfdOvf2y26+YyarwvKFiT9wUyauhB4DekGKdxemraZpttpJJrNCZxRfcObVbaoNBOKHpTnadQ4Aeb09ZQB+PDGj6a4avKlO4PSfvY+TDTXbLJc2fZpjttZ5vsuoOZQM2mTDKTxxLmZkAmdYCOM9TRVhXA3Gy4zwMpNIoPGAOiKLiMTogMYwzNH11izTvutPtuu9NWPPSIPS7vzUbKwVPMJTXcVxqG+Kw178oVrDosoCIHVTZ88NIhgB6P1oEfCuDvgMnzcBKHU+UTu46AH6CPqhPkpYR84cwkEy9Gh5V/WSCZmTTBZm0/37bZ63k2BflsLrDvFVKwdWcBT1MJGBUo+6QMa0RRWQ7iEDWAYzq91wbgJ0bgoXN0vkfrIUqwXYLk2PrrVfbbYz5sc0aalpEhIqdELh+APzlvpr38F8ebbTY1aoPTL7Lzv/Y9G1q2zCZrVJDkZxSlB7y/uK+YsNdfeKrZtnODIUr3l+2mN3/UVl1yjWRRC+2QrgtMUzIM4mOYKcEp3XbIJ/5Thm6yEmTtgXMvsdv+fL61HnjQpmcK4j9lQ2WNEISwiZlT7QGV8Z6TfmK2wxbhY68zdj3UpjwquM0wRYTgo+lHpogqpbzNPXRf2/TwQ2Q4JVt58jd8/+d298WX2aa9vVZSvOX9S62Q67bihAn2kLie/toX2R7/82njB+RHxF+O0Ro6OVS1Sz/8Kev/0+XWV2b6kaKY3ovaGW98KJu0lfmMHfT+t1nf+95oDdkmfoSedgnAr5OwMZ4cnGEZAbaobtfKliezsy+1H7/7IzavlbWSnKrQqmOAf6X6Tm3bTe2I36j+k0tWV50z7Yw1eG+U1WhJ8QB+15ZxGqenonWA/5LeHYLKoXgBPDrA0dCwG4CvKG7YSzyXsqa8r8KkPsvNnG47HX6oTd5inmXnb8WaukgLAUR5JMGDDdmok/LyEw9c//D0I3TqECUTgucjkkcm7qJzB2Y6EEAUkIxj5x7L/B593FbcfKvdc8Mttvj2e23ksSUBhPgacnKxyxLyKPnoJ3jm4omKh6WXSi+ztA5hYxj8x0ETIKXDh1EQfVTH8BGXAIePgVihxH7zdXmgzBE3JxSt2lMIv740a7v5Vtx1R7O+CQI76qYMkJOMJ0YCEI9qGf1FZBTNy2KWLwaKATmxHPgjFp8c+HnFqNoI0JRKhvyOb/3U7v7eyTZ1sCr8jGRekYHlR0tqXQU77NijbPUEeaeKnrj9Ybv1/EusIgPK1jFht1a1Q1qG+uF8wg75/pet+8UH8CB8iXvLWz9mKy6+UiMgefGqW1ZAlUpkw+hwabtqqybl7E3nn2k2c6KYlRAG23bthz5plStvtNxyjfQGB2zm1OnGttkPDqy2RwtJO/K4z1vPUS+RcFt24hZ72aYD8ualX4xGeQtDO/KGqb8nazu++w226bvfHE2N8CGXRjenvu5Yaz+00DabOMFqGrmwNDMrnX5IhnBg23n2pj/LePXIcLCYQfJOtSQTjRr7T/+L/fWjx9m0YdbdR3It1hgnSu3Een8+aaun9NiRP/2e2c5byhmSTmVzoW3QK1qgrjYkT+4FamEMdVy02n5zxNE2YeEKm6ARRWhV6QW6FY04k7aklLYd3nWUbfGhd6pgjao1yuXdGGoPP+SJgRkH/nHaUFoH+C/t2SGCivA3WskQVjRkNfQWYPfLGyrOmm7b7L3Att1zgSVZxcALJ3ZCZH8U8iKQXEeUEmCqAdwqqDO7PhqFh8y4hHNuxknX0WxM+KPrzrEDjE7hJVuEbAr0Bh35TJ/dFq+63h646jq7+dLLLTE4Yq2hkbCjIh0FQApesjxXYBVAh3y0E12uzRQdMU7Ebco7bGSzYW68Lg84P3Wizd5ma9tqz92tyFpwec8BLVkaBeDL4LUkC6bGqInXirlqzjMCU40f9IyloYBaBDLhISdqGwd+TwuFOIHWGAAHfi4wSvw+Lp669Vftgg98yurnX2cTB6q6r5qJt/7Bsk2YOtUeWbnc8tMm2ZLGcNiVclZDHvCQvNRizsrlshUEqOxEyXuMlb0F2+6Db7PZb36tgFOSVR63HvsRW3LR5QH4SxpFMPRpg1JMdRVkLEpte9sVF8gIyjNm9RPLiM6+2P780f+ynhVDNqG7xx5fstAmlLqtKrktFsBv+4ZX2Lafeb/yyNqP5+5uO6a6AtizdQMLBFj2WtH1Y8Wk7fzhY22r/3iLDJH4YbfLVU279gOftJVX32DpFSvl2Mtr1+iVPfwH8jm7O9u29/zhN2bbz5PjkolWy2CYGzIljy630/Z6pc0YaoTtSjD6ceBfofL6N5lmbzhbhiOrkSYfgolHBqn0LeK1pKNJ6RutgU6zOAF9ZGnqhe/+sJUvui6MKKJWjcqAeH/wWHfaXnPSd8323NEqWBJ+F7tSC+8zNHZTChZJRP1qnMZpQ2gs8Ce7WK3SZB92gYs8i4o8l8VCxEc1BC7tu6sdcdxn7DWn/8K2/+InLPniFwjUppt1S+VkGEDOljyZRrMeFL2ju0HxNT4QuDIHjWLzrKk4UnQ6gIxJQ2n5ADR8BEoCAh0knDKNwvC3HYbMzCMDkSyf49OmMukYPmN4WErXpSBP1TaRZ/2qA2yzL3/YXvnXU+0VJ//AnvfBt1pOHWjV5G5bkU/ZkDpoFQAQgoedGtU14ZJRdBiXCNjaMiI5ySTNBLDisX/LagHRInmhj6jud09K2arnb2VbfOwt9upTj7eXnPNL2/kHX7Lim19pNn9W2G+en94LC7lVFmYuqUqyZFx4E6YN2Nq3i9Uuyp/fpqUTy+cMwBZBgQhhdI6cOrgTiM+1B4/qQAIxygnXjJgU474bb5W4MgF4Wc2DB1mQPJoDIzY9W7TugYrNHG7aTAHSpFrDJstjbQ0OWk8uF97BYMB4RzOs8+suvkxZqm6MqARWgB4/K5jv5qcGm2on5S/ngG8eBisyJq50vFCVjrGka0AAOiz94SXs8qF+6+6daLVGLbxL4AvZ1Wxgxv785C0Di6Fk1MjWyQmVVW+0LJvIWJG1/u5r86JdcUyGuSH+V2nEwuqbpMB+uF4VcLLkVk3EiGrZSqVRfDV+gxEkRFqNYNUsQaZrnINIv4O/oTCNFVDEDe+sFCRLOCBNkLbqi/TxUfwo6xn422LHHUIr4dfg5a9NOF/KZcftpBC8oxKfugfoR09pe0oZp3F6+pRcVa3YiABqsCtn98nbK28yxfZ9zzF27Fm/s0O+e5x1v+pF0vIedQZ6i7y17oLV0wJLaWDY00QGgFUVYSpFGQJIgH2YGhAAtJuCa9ZJaxiN19PCAOhf6EThbwRV3qlCJvQiOjCdJ+SrvMJfOhOB1STRfHpVR0JF8aryYBvsS96lLpgRum6/qc1+9zH2whN/YEedcqId8YVP2aQD9rBFfSUbmTXFlheytlL1qBcLliiWZAQyGqko73zJVimvZcprkQB88aSitbfb1LY/6hV29HeOs/ece7od+asf2XbvOVYddAszPccYNvItG0o3w5xsRXVoiqcAFHInmwzrGZUwtc4Rb0/nfLDDjo/pFotIBR4yBnWWtuo8Gj2tAQZEE3X8CDRC6Nwfpc4FEsbjDCTAtCUrLCNwa6q9efHNvjUYGdbGhzwEohkZwokCGn5oP6FRAgY9L8OQE3ACPOyAWWWpqozuwOIl8kIF+hhfVqwIBFkZX6t3vrVQ+dUan2W1Q9owLw/hWkOqRG6iPHg958d/GH0wBZ5XW0BZBMeXzJ3o6BgfPtVUF1Zu8SI/WuWjhxJUg/l5AXiQF6DOj7cobrHYJfzM6HkrrN5hRRpxo73/lYb0yjdMrTFaQmYydL4jbZwAf0L4tgGjSkMQrSPzMA0YLsmUEN2DRnVbaVgxFK47hJEJgdSM7jgy7cml/sSiBhp7PU7j9PdSsjKtzx4qJe3xuRNsn8+8114mL3m2vGSbN9lsigBNXpl6vmJK3TqdIcxxc8kFit3pfKGjsvtiB7VS0m7WigPYbMSFJw/xoRNztExrcIcs8OYJFWUGNlYEMEyNoP28d2CtPR8wpqryz1UGUzfxIAdS+TH/C4/qXaWSHqgzs8aaEcHWcyzz+pfYPj/8qr35r2fY/PcfYz0v2s9Wz5hkC+t1WykgriVyVhPorxT4LJrWa7lD97S9v/wRe+PpP7OXn/pT2+7zHzE7aB8ZQskGA0P+vAAP2wmrNqm8FXIRcAF+Lho87CRruYP4IkBgzt2GytG7CnnBwSsXUJpGRWHfeEVRqiBK8nEalbnfjD90UiR+xJyywKYw13Dn3eHdB5uO4Y3yFSw/8kG7luW1DzaqtrpeDtNXZfFZ1uiIlVqAVFl8AZaALR/HlVTn8urVZo8+qrKUt9SDlS4N6QdAzMdxJXnqTF+wHJhtDEYqI1woqI4YduXHFFRGBoMf8WdENyyjxIIA1tWnZJAoM1BdRilNC0tEMqD8WBBfJPPSlDjhGwOWTGKEgnwVxCNr+vnOAh1M6Jx98NP8AAqBKTiU2OUXBNu57JxjqxzElcVaYO3JPK4fiY/MqXuUNtyMzqLus14iP88/GB39p/25FbVhFMjCwziN09Ol5MpJJdvrbUfZsaedaJu/7xizmV1mfQIyefh8uMNHVUAwSskZUzZ8uJXghSEfJHEM5+qkEVqpd+o+Py7BhGRDw1XQQ/cSCqzVzupeQkdCSsCQpuMq58gYREqNZ+aGIpA6KVsC8GMcaTp46HmYBg90EDpKp1swDcEwWd5mi6881Yvrumxp1GIz+2zesa+zg7/xZTv2x9+2vd95tCV23NLaO2xuO7zxCDviuM/asX87xw77wddt9huOMNtuc7MJ8vrzKoW5e5gUfxRTU935EhPgCizxSFywFUKyVrbUyEj0spQdtRb128JfnWFnvusj9t97HmBnvvuDNvSHP8sb7zcbRo4CJLm9GaGnyyEmgTXEzfU86GBDaC/AlBe74Y6GZwtvut3yAKjuhCk3UaIzMhnOyRBM6bGBnoItF+Cv0ujv4WTD+nvyNijPkyWphVJ3MGY4umyqVpCxqj7wELmp7avB0IQltCqV+jf5DVl598Ex1n120wxrIqVTctUVEjb86OIA/hgiX2rLOn1ak31weDEctWVHE1Q+038s42SlGT8UnylidFtWHh6SDIckZ5VL0PP6yJDCiECYdNJeGQmWJ7MyiY3ggvHmqzJQ2UVFSfrPLchHVpThwDwqek4Uwn0/BiIXzyGi0WedeGF00AnUkSmf2JsaHSKjH7sTiPP49TiN09Oh5Bt+/l3b4gNvN5soT7XE6g55vPL81B1EUkV1GKZu+Pge1UShW0zd6Mh2BaGTMY2B10rgxdqIrsscFQY7YUXVbKXS9XOt5wM6H1EpTHmwVXG5Km++KpBkMzCAD+BqBY+OFRJMfzAc5n1h9F4g8qhDv3HyGwq1SjV4m5wz5cH0AJ706HCete0ljRV2nW9bfvLd9sozfmyH/+knNuO/3232yn0lD4GCjB89jxezbXn17BvTZNoC71JZ1+VBA2pMIcDtUHXIKrWRICuAR/YxYvb62+3e//qm/emlx9iNH/+6TfjLDXbgsEzdedfYKe/9tP3hFUfbQ1/9gdmt90kWykmssdqTdwLBc+zUCQIMCCpkLeIxxfGM81RC3jBbI3NDgPnIrXdYQWDLb84CnGzBwZe1KxtlK8ybZbMOeL5NPWgvKzx/R8vvubNNPWw/m7b/XjbS223L8PSVDVMnTNsk1ea99aatuJNf5FKp+s/3DIy4MvKm2diNPWiYJgLQhyvDkpMYZsoJ7nAYBqu29NpbLTE0onZi+ggnXV664rNNeFlxU10aceo+UzdtGVhGkHnagWGFjNZQs2IrRvqt2qpaCcPCh3KMnAYGzW640fqXLJKBqAbnJSEPPyxbVvm1Vt36Ve+wQCFsqKM00f+IfDoqRj4dA0UjgTWE3ElB/mPJ9ZQ4Y9ssfrlWSnRUxF9xF3n8kBJwL3o6TuP09CnRHqxEbxbl6VWluJVWzQrJnLXKZXVcGQPe2qljsqtjWIaH1tfqNnzNTTa8YoUtX7TEVi1bboMrVtnAin7rX7bCRvoHrTpSDkNx9uFh5Q0dGtDo7ZtoxZ5uy09Q6Omy3qmTbdKs6QozrThnptmMGUIAdeAw3CWIN6aZ4JFrektH8+OdJfL0N5BIiNcLgPCCDgq9UF6WjA7GJgto6SZLUfFIiUDnxZsGXPhhkZBEf9gviGzCwBx5jWioozhLzznfLv3DWbbq9vts0kjT+qpJ6xoUhPIlKvF5X6K6rhDCPyK0H5rUZfMO3tee98oX25zn7baGNyeBSAB9lcSTUL4IOIt4i6rGfcTVrJYDANvjq+yMl73ZuhYus14ZqtrgYKhHq5iz5SrjiPe/y5KvfYVGej1KrJzJgKWNS1fbg1893m4/5wLrltFoD4+EH0Tpl25U0imbctDzbbcTv6JCk3bVUR+ywcuutxKALa+6whYKipOQXo1kNQrYbLod/P1vms2ZEzhcecJv7Ypfn2y5hx6zCZIl72iYz2a3yoYAfJEs3o5Hv9bmf/a9ip62X2+9r21VVgzlyTsB9qdkCokXvDa9z57/liOtdNRrwvy8LVlp13zpq3bfxVfYZJVWxCgFB0Zpdb5EhuCRSTl7/+9/odHcfKWJRpDIrqVnrGY6eZsDbNP+WgBuZBtaogPIyzTKyBywwF70w2+EqdCmRkQ8YcyH0ZekOudMfUkrVDdedmvsKd1o2L3fPcHu/sYJNnVYIxDJmncblM1YkS1EHpqQttffdZ41ujLiG2dFj2gTb/BxGqe/k9ZZztmuy02XYvIDDyhoGFSHJZLSNqZs+LHp+x+x+q132QM33WIP3Ha7LX/kEem74tVrYXM0UmXTUlo+UxdQ4p3xmT73+f1U32QNIMsV8mE+dmRoMNgR9mthmiRMc8srS8gzb8l723Sb+TZjy81tzm47m227ldmUCdEKHlxgplk0XIfvqMNERAeNUwMPUx03i6cvWlPtyAvjOff4ghWewyoYNtXipgJxouG3d8w1ebR4GYqbygPkhRdb1cUtd9viiy+zy045w1Is32MTMqYXZDx5ecoHR92qY0JGh9UvqzWa6ReQDE7stpGZfbb9yw+3/d9xbKgrLxEpfdSRHAV+h/6IgKbAhgLHUCeFtPION667w05+zXtszhCvr6MX7olM0oYk58eU59E/+o7ZvgtkcFV3ZEU6AawN1W3lD35jF37vp9ZbqVuXqsiojxesDQHa4Lwp9vKLfyevOWfXCvgHLr/B8qoX307k5K2zrwy2a2BkwFZXR2zq3Hm2stq04XLdJuv54OLHba70Ial4kpRVJafuZDb83OBjksnrvv5FsxftpTqk7KSt9rGthlQZOR4t6UAtEf2AS0FgvFK6tFKee3rCBKvK4LKwoKjRmI0MW1cpp4EGP+AigFYbJaWjS1TN5u5b2RE/+baMxpRodViHkOXawB9JPEwBIXWxAPCnD1xgLwb4C9KdTLTsIJoKjf4heCa+ZG+kVxpJS8t5FwXw3/O9E+yer59g09QejGABfkYTCYE8wP9wb9qOvOsCa3bzPkLtgWJTvCsfFD8fp3F6CloX+JtCeBSL4a3PzUthawKv2y+/0u687CqrLJanKAzN63lOw3z5VBppR1M/a4bFUnKBPrei4Tr2JB2tIFHv5x5bMofZF/1hqhxQ4NUvXnZY064Oy/RDQh0/fL4f9l5J2ABbJ0/osk1kAHbeZy+bseOOMgbbReDEfAoo50F5wpHuhqNXVbdlfOSZw48AdUTGCOPkydjkK+wEGc5rlmQ9uBIDqfhuEHmArvzgdnh/wMtYUq8atMXnXWTXnPlnW3n7PVYcqFiXZFUUoPHjIaGeAqmGZMbP/7GrJC8k2915WyGZ9Gy1mb3gDUfaxIP2jQycPHG2NaAl4C2U7mIWUEf1CtyE8zjw0yrcwdRleZkqXioXXmWnvOPjthlr5/nFqmzaygLDIYHio91Ze8efTzPbZKq1shl5vKFVQy5ppuvOucx+/4kvWO7xZTZNAFkeXG1dXV1WE0Dfk6nZm68806x3gl1z7Idt6Jrbw1ey5aHh0I68CO7RKA8Dye6tw0NVjQILVuzqttUyBqVC2tj4Y6h/wNLdpeC9l7JFe7RRCevk33jKiWab9onnhP1m/n42r78qEBfgy0Ax+VQtV6xP8RnVYDhwHmqSO1sk5KXkSelGQyOpKsBfLNjA4LClxU+/dGnWkYfbgs98OIwuRzAWvKgPJCPdL+Df/mABv0a5QRrSAeWHE+DAnzxogb30+G8pvR4zXRRiOuxH/4JxVnymGht6mqGRJNO7vvez4PHPGNLIRVHw+onNIoaMgP/BCVk78s4LrN0jXY17/JCf+/U4jdMG0Drr+IPWsWHVKin59Xfag1/4hv12wcF2zvs+bYt+dYb13f+YbTJYsz55ad3yWIvSPF6WpQXSLaXFVtTl1bP2uC1QbchrJ+C9482wTwsgh0cTXvIJBDLqKG0d2f6BFUMs1WMUEKaG1PkT6tBdwqxueZmTNByeNdCw6Q+vtPK5V9k1//0dO/3I99gZ+7zUbnjHR6150h/N7nzIrF9dn1Uq1aolmhUBJjCojs86cZ1RZb6k7KwxiqaxqL4Yo9Px5WU7ePzqgEyP0MFUN0YtSYF3NIQXb6pL8O7ZJ+jWO+z2z/2P/e4lr7HLPnecJS6/ziYtXWlTBc6F8CMf8qxltBhJtOTx1yoyfJJZkx/26BIg7reHHfyVz9grTjvBJh79crO5U429aSTOQBGcxAieBA5hBCCAxZ2MJqAClyFA1AegaYbpubQ9dMvtYVvjpECP+XIMcrqlkZU86dKms82mytjIOkV7J0XlhrLhY/v5Yf+lrIA8p3InMpVSZ96cvedVl3vuENqOWKknbwO1QYG3vPZSl9hMRCttpDMN6Q6gnCkVLM0GaLVhy2rEEXbcVH3yxW61m1hL5my1DHClp2gHvfMNZpNlfMOeSPzObtXaeelNS8DP0leBabFYDDrGpn2sGOK9UFG6lZH82e01bCoo29yqIBPVWwZruQxQbVKPLXjH2/VAFUzI+IyCvsuc9lfGAl2+qPX3LJhEkoTpGTVviE3fQdVE/BRkS06NUinIcOPsKK60UlfKT3IIZ6ls9K6KIsQr/SkrfgmdxtWDaIwR/iheIB750c/HaZyeBiVt6aAtP+0cO+/dH7FfHvNeu+XXf7BNh5rWt3zQ+gar1qcRQEmdMVUpW7tSkT5KSQUirOdmmiaXkwfHWml5z7yUA1izGby8XAR4ig8YsKabKR/fVpYf8C7XazZSLoflhGEzOCk8nSB8aaqyMiq3S+VMaqVsqjyhqerAfRp+960csr4l/bbkwsvt1M/9r/3qtcfYaUe93W792vEyXgIi9m5bMWhpdpNkjpV5YJZNqmCsHqOLMFWjaJgBMBSi/+KZMg0ihiNwxRDVBd6sUGLlzV0LbdUfz7dfv/pN9qu3vNeuO+E3lpdxnF1u2ky5bxPV2dMCtLbqhhFpSkbDKrg/o2NvyRpzZ1hmx63snb/+iR36tS/ZzNcI8OWB8vut0Q9xMzIAYkL3X5sCEnSOAgxiIEtwAcCiPnj6HlIsgVS1+XF16jlCG8pglyWXpNqoJSPQO2uGIipDZcLIgXcT5DcKOhqVlKZPtnJbbSgJsVafFTy8IObl7cM3Sd4CT97xAJZ8ANesNVUeEx1MVTD/jcFVUNmYJ3hhjyV0ZEgjyBUy9JV8xoY0AujvzVtum01txisPk1zEP8AvXWHLYz7K4gUwo7O0ygqbTas89DDKO8qfNiZUmcWUgWcb7CXSs/v7+604fzM77K1Ha5TSLUMiQ9iRaVRnSVPtF92QRJUnx2BUyRPOQ95qH55jHHQvAn7VUvXhZyq5Txp+FIhHTGWGEvghFT1jqw+WbGIcPU9S8C6LH4Bp0x4dImXgiFt+O34+TuP0NCj5pze/3874+P/a0CU32txy0qY10tZYNRQ+0U8IrNi+gf3acxqKE/AKWW/dxlMWIDcb8vqqfKCkwa2wjtDSOYFhakYdL5vv0lC7W8P/gvJLy0MTmMpbTBHUd9MaP6cU2Gs/K8UnsHojq46HoeHlKfPKzKDyAxzsFMrvADCfPEXu15SV8gKvu9fu+8Hv7Yw3f8JOPfD1tviHp5ldeqtGAup67N0CSIROLcOijsX6cYYr9DFOmwLqJvvMMH2EV8/wXUaAF9nsRWPnXW7X/ecX7JRXv8v+/L7PW+m6+2zSY6tti2TJpmXleVaq4QdqWNPPV8DMgbdT8oLVpRcLpAdmTbLJL9vfDvnap+zg3//QbNctzKbJ08XI0PFr7I8PmAH6Gi2JU8JY8Mfb5D6jAkIAa4Kqhi0IXwYrZD2DoZrdc9ud8pDVrgLZfL4omWeZPdEoJ29bbDVfkVRXETAWbS8se4FLyzRaMWczt9rMhrNJG5JxKsvzbwt8G/J0C7JU918tGVdTVmhlrMimbKpHVZ4t++4nFdrIQYElpcxr+HUuoZGNimjl8tbo67GFuZbdX2rbjBe/wF72/a9GoxDe46AgCmyTMViuagBT1O2iRoaZ8NsKSTkE/FobusgIhoDZKcv4MNYrS7bLNeob7inYJuym+ZYjrfdIGVsZtITqFGQoeaEawdkOQeCsNmAPpqp0sK5AvryvohyOODlhKSg8kkQZYCLCeQTVugLWIx2Obui58uTL47XzisqgLMqkbHgIbRqljNjiQrdHb47TOD1NSvyub7d2SSDdI6XLCrBYJ80PsDBsZSIeDyTMweN1qUvx6TzAwfYOdJgAysyJyyAwtGco3JCHjxcT5vql9ByDV6M4DNEB+RZzzepp/LA7Q2l+JAV9pvMQl3zxToP3I2RG8SNvSzzpVkWjBPLjxSy//gQzeMtMH9VzaVtWr1i9p2gTt9ncdjhwH5t38AvMNp8bucIAu+KymqOtejLlkO/mt/hUClvz8oxe9uBCu/+iS+36cy6w/jvuC6typlvW+LWnQjFlQwOrrM6HQbwclAfI15wEduZs5wWuMlKJiT22xV4LbMcjX2G2k0CWJYSqbDOsGhJJPlGdYSyaecNLDPVVAJIjWI7u8QywZ4mtE8YibK7HLRJBGCEyu/NhO+5Nb7M54j0zMGLdxUKoLyO2xsw+e/HnP2gTDpds8oCPwE5th+faFqgVdG3Ddbvz57+2y372Gyv2j1iqXpXvLi+7lbZyMWurpxbsP375C7vmM1+2h6+TERgoK52MjIwElIFhEXveIFLmyAnpZCb8MlYtx0vmhE3ecUs74DWvsMn77hWBfkngrQqxb6cNNO0HL3iFFR9bab3SGTaL48vjaGwSESoQgFFy4Eib4KAMyYAVpk+ynQ7f37Z/1UvMNJoIRj2rtpcT0mEvyDhwjDXSyO67ux1q01X36BsApvoivilnRSFjkw8/0F7+mY+ZTeyKfArxGubxZaRc38nb82c0Ft4TVxp220mn2hVf/Z5NHZFp6uRJ2/IeAR1eXMrYf1x/XrScWLLkmbc2NQ58jtM4/R20zsvdi7t3b7OVMR/dNNTpAXgUjQ+oAtgLmEInE5g20mw33LChdtP61SFS3V0C5qS826YVerpsyrRpYdUOwPLAffeHOdbwtaS0lt+dDfP3cofT9YZNYkQhL7nJsF3P8gJMPHz8TV7+wiQfizE15BR+7rDDPJhGB8dDBajdC6PTcZ4rlIRZtWh7ZHX0ljy+6dtsaXu/8BDLHba/2QzmtdXJec+AIWDr56SG6axiuvEOu/LkU+2xW+6wwUcet2m5kk3Akx8YFoLVrFjK26JVS2xi7wQrCiRbVclJZdbSGVudbNpKgV5y1hTbS0Cz+atfajZzqnq+umx1JPqJQ42c+lvMv/MrZAB+Z6ivv8ieM4BobCdfAwD8jcmF1B0PkQTIhekFXiy3HllsV55+jvXIoPWqnaNIeq52YXvhHY+Cv0lhF1aZCuXEdEk07gh7LclA1O99wG47/2IrVGXQZZAZPSTThTACWJKu28FveoM9fMEltuqhxywrWXRpVFHmGwLy67Ap53y0boAdK294tBk/szh/c3ngBRmfnNpDEaVTfDwo0y/gVT00irj6uz+3icFTFj8yaqnOShychkC0vTIHRMOoSPenzpphM7fWyGrTOQLRvMBe8QJII20YiuQNU/DFOe5NWjp607d/bhNUF74BQNaMBsifl7EjqYxlNplj2x12qFlBmXYai1Vi9BsH/ii/iIiSEP/cWHbDTfbo5VdZSU6H7/hK3kH6Gg2tzqVs5/98izU04o4mryLeQhROoHAxTuO0YbQO8F+a2a7NtA1fxLKqg73kywCGwLIsrw9FL07oCZtSbbrt1jZz/mbRj4fM3sRsUp96sBSf/d6ZL6Hjet4C7+A5uxe9crXZoqVWW7w0fO6/8uFHbeWjj9ljDzxsAyuWq7Oxvw9GQvEFrkz3JGVQUuos4eUXnUJ8Md8bNm/rjAYYkUQek44qMhgN3eCdQTabt4wC8+dDrYaN4HKxYmhCwTZ/+UG2x8sOt5SMAfPaJn7uP+9iu+oPZ9vyO++zGQK2iRrVsIrJhsvqgAkrFHICFRm/mjznSRNtVf9gAHz2eGffdX6BbO5uu9g+AvvUYQeGr31VKclBHr56flKgAMTz4/ajTUBjKADU+PEBQXRGfQMyQtRvNAEUgZGfrQX8Oohj3pUGLzMrOQT04eU3L1sBMvJitQjbKEwuWUX38K6ZM2dGHi4gXhHzaVpoS9qQaZdgiFUIigH48lkyYB2W/+pc7RKYdX7hCVL0tYhvHcKmZTpHf7o5J61MjtqjpTarK08cAXbitGXSH7bhwIugQsiNvEOIZU65ciLCA1Y1YdTRS90awRhpxEoN86EOHT5xHoiuA7sLyZRH73N4NxSQOcouEMJBr/n4sKtHF3rO+wfiELgjGTEaZaTMC17Owy+MkQd1Qe6MZOFNxQTyMpAr+cnbZw8q9ADDMPrc+YiVN07j9FS0DvBfWdy5zcuxusKwOttgLmMDxZTN2W17m7dgZ9vqBRp6bzkv6nAMg5lIZtmjvLCwc2LIhT+6pgNBAkFL0UM65MoKca4sQkDpNdwP2ykvWmyL777XHuY7gYcesUfZW0aeV0FgwgqfkuKzY2MGYOfFrECH1UK8ZKSDARFh0zh5Y3Q0pqSYgqoC3CJ2lUzJsBF/UJ7ZknbdeuQRzpo7JywLXHjPvdYaKtvkfMnyMj4sCawMDYb1/d0CKACRvWrq8ugzuYKVmW/u6rYVAvXFiZpN3mFrO+io19qkQw8w6+mOZMWHaIhB/XhoZDCsQtFpJLuyKvXAI9FHU72KX8LblfwEKgE4mPpxuem2A38EApEA1zxWrjHgx3OPvHeajX2NlBgQc+EDOGz1q8zCC2U95ymsMoFSlzwK/L6A4tUlw4x0ImKCBtORA8t0aH8l4stqiD10ghXWqCAYBciZdKIeBIiX+GQrwwHIlTUKSlZb1ptnxVWMOmzzpyFZY/Bpj9H7HEcFpECdAFr4cYJfnAqMlxPCJH4H+JErBpOxCKPQSE7cV+A5FIpR2VhyZI6uY/jCfZGOceDH+0+pbzHPT8fjX2A6zPvoGM+X8yBimVzVsaly1EpROf48Hp8wTuO0AbTuVM/0PdurBYTDAspp2823PV/5YiseIm91ksCIoTEeD31FoIROMhRGefGb8MxQ6LA2PnhZa8j1k34JRHF0TeVvWBUicA3LI8kYz5S3okTkHlMv9z5gS6++zu659iZbqvPayn7LCojz6gh8FAV7+NCwqB6mfKKOBmEEWCqXEG/whxGoV6typlJhTXcZr1LnGA86KT/pGHZsVJyUrpkfZtqKrQ0ajYbqKgMjxpvqkFWmIgT+KwSEW+y/p+11zJFmz9tRQC8AUPy2QJ+th/3dB3gePGJYGylb9Ybb7Lzv/cLuuf5m22q3nezQI19luQP2DEs5w4+dYzTjXqwojmsuVYgsxwI/pg7gh5hwyOsvH4ypImpTpjdkxCS/jEZ5VcWOJvr0XPVhui0At+QcvmhVfk2BG78OxvRNIcNunnARlRmeiV+gH90AkHkaTXREFPC1cxne8wbeE1bWCKkoOQJw/a2K5ZP50KbNcj0ssWzV1Da8E3FSew6LX+rLSESchmmjNUWpbiqcwDRlio/B6rWwDz+joqBnIa7+4HFLcbiEXz+J5EY9okzZBpwzNxdkQf35AqQxUrM0I96O7gdwl2448K+PeMb3HNhHCqUOEG3GrWivVPEfjnj8og5va3hV3lG0cRqnDaJ1gP9nc57X3vLAfe35r3uZZZ63q1kRL05qPlax8DKZzgneJoqK+gfIiTq1Bx53wDd0LvLpBGYM0FmUvSaAzQl4xE2Uhj8Af+gv3FMeADFZ0dv4ElNe+c1XXGWP3HirLbv5NiuMCMirTSsKTZi/xlNPVBvWrqhDMlzm5bQKY/helYcf3l4wKlCnbLKKJqkRgKLxo+kYE951JIXuFYFF2MRLAQPFx2hMhfHZ/YhyGe7O2xYve6Ht+tIXWvJ5OyueMmEKJScjIYCE3Yb+MZ2Qoh6s9R6UL3n1zXbdyafbHRdeGj6IK8jwNWRwlycFm5vNsl1f+2Lb/pWHm82YIvBilh1xrJnjjVO07seJSnSOihyAT1ekAbACuITnIkXxvGK3RBh0EUY3POjE4qHaKLqKeFkLeDrR2JKIekOUF8rsUJQmnHYMWKcsiPuqK542pxQX0nMRnilA4VyM6Tq6rfP480BRTdZQ55p4Tp008IEBgufR8kTR/SglR5cyAExRnlVUrGLF83aKHq5DRA2i7fylDM/TDTXt5WWH5538g9OhI7wGIyZ6gmLGaZzWoXWAv33GxW3bbXuzyT1hProcplGCnxFNb7pmxkneVEteHp3Elbejy+opiox3CXBCXhZHP4c6ebZqgmOAlZUWFKZzVvSE3TnxmgAi4pI/ms85H1AtWmx28+12y6VX2N1X3WD9Dz9qeXmKfemcTWAkoTzYe54PedLyXFkG2pAnzjp04IuXaBnFwxA0anVLyuiE7Xr1r6HeliwWbZCVQeKpKS98kPcd8sj3etFhNu8tbzLbhB+kKUQ9EUCSoWELBuqSE9+hw/LBDjw/+Kjd8qMT7aYzz7We1VXrS8m4ygqGl+e5tC1N1GxoZp/t9ebX2Q5Hv8ZsSk8wrHAarU6PyMUQyXwM8Ad5RoBAu1AscSOgUPzwnJOx+ThxRyHE0x8ueUibhDTEVr069ykjgC/XImyBGxuSdSaH1lCs/LUo5CdDTJ7RnUiko/E7BcSJZ+gFRH5j8+zIYQ1FL3HjOUXXkccfpnb8pvJiBAJxDOwpBOAPz6M0EbkhDBdraB1+IiIa7ULJoY6cSnDIEuDnOSX7iq1wDGVGBgh+SAPwj6Yfp3HaAFoX+IcqcpOlXXit8j5RK5xUlBEKyiowCy9adXP0B8Hl4fKMX94iAZmOHd4yrCUW96PpAfLjhzdIk5CBEbiP0d6QZ+cIcQydUj0m7KfDfCoRwna66g70pKGKRgP32/0aDdz610tt0S132pxir6WHypYToJcELIlGI0y9pATQhVIxrDxiwy48enjPJbOWwgNvtsM2y0NMYUzotn4QbOpEW/CKw22z17/CbOaEqHdm2DlSHr7Ang+a2NQtdFTqFvYOEG8PPGo3n/hbu+oPZ1nvSN2mp7OW1jFsMaDR0IjyqRRSttneu9vOTBftLgPMdFEhuwHArzNkH+TXkXvHE0ckBOLzOIofHUnvsvV7UDT9QuAeb0ygyNOHD4Cfe2s8447X7hmKSS8TgucoDxE3/UGnQKaFIOoX+IY8AXE7gM8koXPlf0M0dwi4GC1IFMpZkx+X8A9vUOdJh6K8gfegYx0CYAmkJR1peB4VE3ETUeR7R/zwp0NxfmIU8cIxyiOKFpUDsHPX5YYuuQGAoudeXqzccRqnDaB1gb880g6rCNLRi8/wlWp4eStV4z7qhf4RWLXBkQwC6OjomY3m2ekBTAu5dvozPydQho4YAQwE8/As1/Sios6gLqJn/OgGHaLNOwXAX4DbTMhLFziwdUS0hk+p4G/lQFjBcuNPT7RV9zxoK+55wJIDIzYhwb4wyr9Ss0albKVSKdR3dOmd8sG7Z/6+kkvZymbNZu+4rS04/BDrfsnBZtMniue69bdlTLr6BAh8gxAttsM2hPIZiYTyh+zq439uS2+8w4YfeNi6ZaMwPvz2b0P5jijtSpXRu+VcO/B1R1jXES+JtsUOP+7CNxRNiSd6cU4XR1zQ2tiClNZPxAO4nEi/5iqSr5Pfj0x09MTjcwTwo7tRTNoBArhDHAojEFnBwd8BLFw4hRtQNMUCBeBn4j8qbE2cAPxRPM8CwIsMRfSsc3NtCpGj/DhFDp2Y3B3lH4rqTNTIA3eizqTzsikicomiNGtoPQDszMapE8EfxfMgB64Adi8LXgD9eBtHvES6EJU6ptxxGqcnoXWAv9mosJoz3GTdffBYB+VBs6YdT3rhkjBVMcTyy4WLbPXS5VYZGLSVi5ZYtVKx4eHhMDWTzeWsZ+IE65s8yQq93eEHPrqnTrJp8zaxyfPmmM2aLs95sgCuJ5oG4qVdWC2yhgBhRhqRuuNt4nlGY4XQMQFXVluwoifEizrs6JA4DFV0HkYUuh4cttYtd9ntF15q9192nUD4USuWm9YtD7OggrIqjw+JmOdnKme1RjHVvi5rTZtoR37gXZbceVsBvnhmNMTm+OKbYnjxBvCFJabwU1W3xMtfstIe/9O5dskpp5s9ttzyg1UraQzPNwrUq5JoWF3gPtidtS1feKDtdsxRapF5kSxURlm5s8Kou9ATOjf1fmKiglG1oSeN65HCUWURWYHLOLg48ENRforbIUAH4j7pIuCOTVl0KA6WpPBn3PPco/udK0C/M1IJxFGB3+SCfGIFaQD8IX64ET2PnkbkWRA74nGNpw+fPnIMFDGheA6wnZxoqHCfn/ccjRY97hij6BLAdgiOlR1nyGn0odOafEIJnfqTdE2Zql8o0zOkPyAFL3GcxmnDaV2PvyHEEgCGrQnQuseW2PDtd9rffn+G1RYts/KjS4MHXVCH42VkGOpXG5YSuIYVFaLgMbMkjox15Ae3wgc4aXnQ6ixDrXr4cjPdXbQJAv/M1D7b8uD9bNLm82zylluaTZI3DU+kD0iuP+QXdBz21OlDWbrHUUBKGczXw0/oDqQX8dFXmH5qNCzLvikYAd4cruDHOe6wG88+12656DLrATdGyuGXoniRm5nca3N229F2O+JwswP3EQ+KUFT6MOrhQx51dJXBNwLhHTeFkTc7WK4esRV/OMcuPPn3tuq+h2xqpmjZwbLN6J5ozXLVKnxDkEvYosawzd1jJzvg/e8y23UnM35opJCwkXbdBhpV6871Cm5kAIaGrberFMroiDgqb5RoKJ4FAYmi6wBgnuAJqZNmNMMobUQRYEJrlxel8Wek4JwjTwL4dx6ud65e9xC3x4fPUWMdpnliPI2mJ7aXxG0eCLo9c0BYAXAfvaXQyUkUedJxnA/A71mORl67nIh4GGKPue1xuR3xzZWXSaq14juFBx0KZa/JJ6T2qS5oNC4SG8tTVOY4jdPfS+uZ4xfw49lff7Ndc9pZdtvfLrXWytU2syTPXMDIxmw5KSbbMYRlkcxpV2vWlS2OAj+AyCkee5gw0HWFpZO5bNh5kwLZ/CyskCEeL0J15Ldd2b63a8ZU23T7+bb18xdYlh8gma3RQUtdtouXp8pMoBu8eeb3Q8eJQrxbQCHv6FTUmezQKCHJSAEYAgXw0FcN2l2nnGY3yAA8cM+9tu2OO9hL3vBay+63l7xvxaFjZgX6yiBMfwnp+U1dqC2+2GYiLHlcvNL6L7zcrv7dmbb42lttigxjTzZn5dUDlmc0k0jJLjRshYA9s/ks2+M1L7bZbD62yWzlrfyy+TDa4KUouasoa4f9dNibZk1dqC4gCsW98jUgEN0b9aLjgiGxiFueklThdrwAURxEIW5HJUR/SR9/DnEP3kZX4SjqWk51JwF7A3FKnsQHMqNiozKJh1jX8MjZmtU/DrQhvxD0nDx1G/kRO8o7eifi5XITfmKXIac1+Ubl+OTTmsmbqL3XxIOIG8WT+Q88cQcazdMLcvIMnHgu/cJBiSiSxtrlQBHw+7RQVKtxj3+cnh6tA/z9v/tz+48/+LmV737IJkvZCwKeonQtIaBmT/N08OSlprwIlSKylSwUftSio6VkCNg70YEh7tMBE7z81TXxI9VNBEDFm2ZUUFEZZSFHuZCxenfBqvK0dz/4IJu/x+6W3X33NQZARidMuzAiYFWRCqILhQrxmKByCJTnRKyI7Q6QAP7sJz04HPVjedehn1OG+GB7adas58KPySg9IyL6H3P49EfSXH21nfPjE+zei660edlum57MWW3ZSrHYsu6J3baC/e5zKevPJW3eXgts37e9yWyBvHx2UQu7QmZGsyJvgDMMLkTVqowLWxBHl4Fnuj0RuQcrUdROgnDH6xydx4XgadbJb604EYh5HKjzSE9cemvnAXkWceDnQFxSOQBHU3Ode+HIFfeivKO/URxojWGI7jjwQ+E+ggNAdYvN2IgV+OiEUeCH9IDo8VuRPCGgFblGT6MJpTFliaI6UUrEcQTAkdHibnRPFC8E8gyceB6Afw2k8y9eTkRPzNfYLMdpnJ6K1gH+E+fu2c4OVq1HLuakQsmqwyPqNFK4Zj1EZFqDjdU8UVP/6ITslslLVrYy4OcVA7hLR4NKKypfTUYbu7XDSIFn7MvDRy6k450AOWEA2OsHbx7vn+kbtmtOyXMe0bP85D7bYo9dbf4hLzDbbYfwM3vs4W+ZgmIqT4F4UsYjDAoCh7qnE/iGIkgAROhAnRjhVOfMF/PtAJHDtws6Uk8ZItb+k0V4yUYc3Ep+T/iK6+3Cn55oy267zZL9A2FpZmKwYt1KX5KhWL16tdnEkt3fHrH01pvaHke/1jY/6rXitzPtVBLfKp930hAcdVhdq0PDYpyiZ0gzTp4yqlc8vX9ExOolZM30F22IvGmP8HvEMXJj7RS+Nu2UFlZhifg9A6hSrWhEo9GK2o14UEhOxSQ7UpEWsOI+ZfKRV7yuznP8ztrkwB9RxEkUN9znRgBQYq7Jw8/GVKeTfn20thycIleF/KQLfL3MjrBt6bx0JMhFdcXxoF4Q9/gehGXITmEVmZ4TIJc9ZQa+GbWI+Eqb0nzEHH64pVlTl4jyQt7ky3XQHQXadmMndBSdjANSnHzhhRPX0BPFH6cnpnWA/7y+3dpdvOAcrlgumQ6fmbMpW1gso4bxgLKFRtJ9lC7sgY4WKuDtxT0slJfpWDZYwwiQBqDhR7XZTZMfPh8cEjCyjQIreRqNqFMof/JGpUMHkbJXdY+dNpcmNAKZM9222ud5Nm/BApu2nwwBewXR0UJfkpHRkIL1+v7+D5baMlCJBJsSiCfxELxq8gbpgiAiYdTUadmVEoruqFOq48r9D+807KY77Mqf/8YWXnWjZVcNWrdGH0ViVepWzBdspFy1qhSzNLXP7hlcYQuOfrXNf9vrzebNivLKaFShupXrbYEIEwVezrNDvHBnWwuAn2m6hmQcB6WnIjccfoTK5XJoF9rP83daA2oCqooMA6MaEeVy35Uunt+/MsE3BO/IkPqMfl/SqcsTUVwWUBzAqD/XxEGO8XuexmULD6E/dORFGvLZGOS3oeSywkhSN+qNLAheT86hp5L7OD0xrQP8101+XjvsJT80HDy6bJ4tqqSYAsYwty0PjgR8vYpRYIsDXOqSPO6E+gZeDl4Rjh/x+AHshhoTbz7M7SiPVBgKKCgda9hp3IHhoWBggocYGllgKAXAMFA+X88yPG+C1EoTLY0XaGhs31CHSUydaFvvs4dty3bLO21rNoORgOIKVGuUze//ilAduhPTPdx2Ch6wFIsdFSvskigjxPiFCS02DSsw98OLiLsetjt/dardcvZ5Vl+83CZlS1ZihNAs26C8+xmTp1lNPK2U4VkigXTNn2ev+dzHNTrZxqxHhoQP01R6c6iqMvJhx0Vqxif/UTf/5xGdDFnTTnFgejKKGwzS0kEBLFciQMvzdSCDuHaQjytc3HhszORypI4E6uT19Gd+jszCr5HFaKzhdFn5OXJ3GcVBEYob1o2dHPjd0MZ1jTq78YP86GnGacNpHeC/oXcXybijqAI09pMfkIfTFGDxIyysxmFeP/zikMCZEOYk2WhMoA+g0yD8bGJCQM/v2qLUpVIhei5gzcqIsLmab8/MVFJoROXFV7INKTqD3DBHE0YRLevq6bFh8cFceyKVsUK2YNlklqX04UVxXX1iZbtmlVLWerbe1LY+YF+bt//eZuweypw9eoFhAfo79aWeBKaHGI2w+Ri2gJ3UoURLnZE9g5g4fnip3fXr0+zGU8+29OIBm6yy83XxCa8JGbBSxgarZfHXsBH2lZk1zfZ87Stsk2OPClM9/Ah3U/LEeMFFim8M0jJKSV4jCiQD8EeK/GwQHYYOEvf2uSYAIHElWB/FgQgaGRkJm8xB5Ed675hjAX9s3nFeoPXF+VckPP2g25KXj5xch1w2cTm5UXTiGffiox/q7aCFTEjrssAoch4HdfKAKNPTjTUaGyshj7jBXB+NlSlyQCbjwP/30TrAf2Vmfps99RMSLitQqvnM6M/gFWZPsynzt7BZ8ze3ybNnW767JKxOB8HnZsyMpkDkfbTLFauWh214cNCG+1dbbWjEbr32WqutGLDykmXWXjloJQF2t4Au35Tiq8EzofHkCcujDyMJ3UvqHpulFbM561+5SqOPgiXz2fBh1QgfP40aGXlatbI6ohRCoDvYbtpqpc3MnGqb7rG7zdp9J5v8shfJ45bx0QiAkUdTisL+NxBdiW7D3DUrjFgz3RgYCMbFlvbbwl+dYjeecrbllg9aj/hOqZ5V1Smvjp8vFGy4UbUlIwOWmTbJlqeatvl+e9re73yz2Q7y8n2rirxGEyqaX43qKci/lxFkL/lKRqAnyI+2P372gD/eYZYvX26TJ08O538P0c6ATNxbXbFihU2aNKlzFZUDgPGTiBDnKBjtNCh96O7uDvc3ZrDCwz7//PNDHQEe5Eq9MaYYxB122ME22WSTUZCm7nFDCfEM47Fw4UK78sor7ZZbbrEHH3zQHn/88SAzwJ422mmnnWyXXXaxvffe2/r6+kaNStxI0FfcM96YyXWCb4GoP2BO3ZCx6wpycxlA/y51/2fTOsD/t6nPbw8nmjaSSVpp5hTbcsEutvlezzNjaSMvUfmaNEy3EFtH0rb1pwOigcIUiv4E91nKL488zI3zUnTZKrPHl5k9+Igtvv0eu+emm+3x++4P8+MNdQ5e+DJaKKrRs62EpeUZszd/qbPlMy97+YI3ALcAH0+9oVFAt/hlLx6mpNK5QpiV6VfnGBbwVrsLlpkzw3Y+9EDb5mUvNNty0wjpVc+20iWSaZUtBQIYlUeYp1JHXnLKmfaX7/3UissGrK/cssSqYetR3nT0KqORVNoqMlKrmxpxTO6x8qSCveTdb7FefmxFHr40V24bX2wVbWT5KitOmxh2wczJiDLbVamOWEsGIfop7mcX+CEA67zzzrM3vvGNAYQhOpED1IYSnZBOCgFO99xzj02cODHkedxxx9l3v/vd0fwhOrAbg49//OP2/ve/P8SHuE9eG8tUBQB/4YUX2lFHHRW9uBd5/SDq+JGPfMQ+9KEPWW9v7xN6r+ecc459+9vftquvvtr6+/s7d6WSiu+jsXi7UMYRRxxhb3vb2+wFL3hBML7wAijGDfHGSnHHxI0kIx53IKhnXJYYB762Hwf+p0frAP9JW+zfnrHnzrbrEYdZ74H7dkDeAUlHIgPy3BJogPmoZ3jZG+JENHoepmvUKUijxguRw/QNR55rlDA4ZKuvvMKW3nmvPXjDLbb6/oWWXDFouWorbKtQEDC3ampgipdXzpbIzP3T4ABXU8CbkidfbdVkFHi/wLr3pNXx4MVgIpMNPyE4LCYz0yfbFvvtYdu/7GCzBTtqFCALEJiV0uGSl9tWPuMs++N3f2iJxStsk64eG3hskU3skpKxCkn5UaWERgM1lTGsfFvT+mzmwXvZgo++z2xaSXkJFNFF1voPJ2z5pVfZ1/7fN+wrZ/0heP5Dw6uta+KEIDt+xCUvoxbs6LMM/NDFF19sBxxwQOdKtVZnGwsy6yM6IB0SQmGC8ZPHCtEpyQNw+vznP29f/vKXQ4eMGwgHR55/6lOfCul5Rhs+ETj+K5HXD4rLEP4J1IU41OW//uu/7HOf+1x4DiEn5AFQ3XXXXfb1r3/dfv/739uARpWQy4a0boiRKeccHdzJh3bAcH7iE5+wCRMmhHyJ76C5sRL1cAB3I4CeYAB4RuAeskIOm222mR177LEh/jj9/bQO8Leve7Btm88wKwmEhIkjAlW+eGUChHezYb5bnjgrZQj4OdwGsgjAB9lxj6NnzQ9hpGVAiNNUIwL+oaEpHPCvyDPGIPBD6AsXW+uam+ymv11m9996mw0vXWldisvPlhTA1GrdcuIhI+BluqTaqGpAoXTy7v03gVlxyCqjrBCY34RNiRM2Ch1RvAE5SMMTNJTeaSvb+1Uvtq5DDhJXGWteeo1ddOJvbdkNt9rkqjpbuWKtkSErFvLhPUJSitdOyohoRDCislaI7zk7bGcHvfttZvtrVBRkpkL4UQ2sgwzHnb86w846+RRLqON+9I8C/j4VLiMV/Z5qOyx/9GWQa5rhH0/esQCtAw88MHQg7kHc9/OnIgds98AcmJw+85nPBODnXhz4Pe6XvvSl0KG5joPpxkAALGB8ySWXBK8buXENUEGcUy9A/5Of/OTo9ITTHXfcEUYC5557bojnsiRfl89Y4j7Es54eOSEdY/GBD3wgyJppto1Njk9GQ0ND1tXVFWQK6LsRhOKyeMlLXmK//e1vR/fY+nep/z+LxgJ/0raeLRdEwJVmRUvKCqlimIqoVdSBw9pNgb4OTLEgagaZDNL5OUSuCYA7R17QYghotpRAn2PwK9VhEmwCJ6hrUzZfreaUS1a5dSvMn2vJN77Udv3R/9przjrRjvnFt2zqi/e3/ukTbVGiYeVcJuxkOaIy6yw1TecEnDlrCKwTjaRlww94RC+YA8Cx/XKTH0FpWU6Gold1mbxiyMoXXWcXfPw4++thR9ldb/2Infr+T9qKi6+0qbIQ+Ta/8KpOmeWlbMJSAm51e8tKKZdURmxZIWOHf+L9dpB4sxftbTZBnTyvWlPBEf258hY794Oft79+/fu2RTNthWF+Xk8SUPkMjxIK/AiMtDgcn03Qh9ybgug4dCjIDYB3nLWUQUAGxTsVHdIBjXzcK3WKl0O+nofHIb2fk6/z4cQ1HRkinp9DnMfjk//Ya8+baa14WgfnsXkQD+I+IV4X8vM8OFIXgNpHOtwjX+pB4LnHR0aetxu/r33ta3bZZZeFc+RMcF4o1+Xq0xsuW/LmGaDvz44//vjg+UPePnHe4QP+48Q958+J8j1dvG0gzv2a49jnXobf43p9svV7LjfIZQLF0wD65INR5Bg3nuiW6xeyAPQh1yN4ifMDOQ+Qy8P58Gt4IXg6ppicXF7+zI/OM0fukZffo0y/B5HH2Hwg4jt/3CeO5wHFr+HP8/Cj509al6ff86Pz5/nE849T0kppa3cXBchScjU0vw2aqPM7pxpK8sGSQlIhgx0oK/MhnawasVRZMF6uWmq4EoWqhmtKlxUDrOBJSdjsawb28Vu5rOdn8EAVwnJL5nGyalQBLbMu1iVl7lKjz5lqiefvYPt9/b/t9Sd8x17+hY/arBe/wAZmT7THC21bXcxYtadgqZ4uS+f5iAu+xYsKyMkgAKpNflsVRJaHnqpryN1O2DQZimmNlHUvHbL2nQ/ZvedcaDNUh3l51X3FKmsOyvNQftlMTlVuWlke/up82q5btcR2OvLl9paTf2rTXv8ys+m9xgsKNbNaR2X0l23RiafYCe/6sK265FpbMHGmtRcvtxwjABqdH2hh6JTQUTwxRRYs4v8xoUwAkYMIRCfjnisa1zwHAOiQXD+RIv29RD7kC9hRBh3C+XGl5prnxMMzpHyu6agErlF40vrLQeKRN0DCvDCdwAEVIh71Iy7B70NeX8ifUW/SkB/XLh8PkB+dSHPWWWeFeX14IC94gk94gThST/Ij+D3SUieeeV0hyrj88svtqquuCteAmadDPpQB/8RzoOOe18PJZUEc6uT1cblxTX4c/TlEGi+De8Tl2usB+Xsbv/Z3EVxTL/KgLNK4zHg3RD4AOwsBKNuJdC4HAuR14xpenB+n+LsjnkHOB2ngAV4Ino5zyOsNEc/lAXHuvPDMy4UfyuScONTL5Q7RluRLGtI6f54vz3kG8Zz0Li+uydOJNMQl8Jx3RV5HT+tpOFIuR8oYS8mB5pCtqvDSqiEcFrMDQwJ7NQoAv2zY7PaHzK64xezPl1vtt2fbkh+fZA9+9+dmp/7Z7E8XmV1+o9ldD5otXG62UmmH1DAjUkqAr6bzKqt+hoR7WDp5VAplq9iQvOua2rIhAfErVE0BN1M2YQlmX7c1smJ2+zlWesvLbLvvf85eduLXbZ9Pv8fau25uNw8usSUN5YE3nc9YrrsU5vWrvFRWuV3FUpgW4if3ws/utQTTNTWaBFfMFa1UKNrkXg0vhwesPjRoEwX4rM9PqM7tEXVGxRmZ2GPLZvTaq7/7BdvuG58223lTs2ld4k/VGJaC0B/vedRu/PzX7C/Hfds2GWjapu28DT34qE0pKh6Gh7ZXaKuNeZ3AiCh8/NAxAv/XRIdwBYVcQblHp0dhvIPGFciV9pkQ5ZCP50mHoBMBjig1zynTlRzPEOI5XrB7wt75nTwehIfoz7wsgtfZOyodLd7BIO57PQFFJ6YjvEznLV4H7gH2f/jDH2zp0qXhfpyneNkQcvZ3KeQDL9yDPC58EP/hhx+2H//4x+Eebed8E59yaT/SONA5ja0bciUOdaRs0sCj15drT4Ph4Zz8nbhHHn7fZUB+3CNv1yWI59wnf8+bI3L1VV9Ma8UXIJDGKV6280jd/T46AbkceeZ6Cx+QtydlQ64L5BHXEcomLkcn0nibQ258iO+ypi5eP9ITh7I9HXl4efAHz8Sl7fya9NTb5en8kBdxiM89nnHNYgLK4Jp4PF+2bFk4ct/1yPmOU6LdqsgM64x15sMS5k23260XX2F3XHGNNVYIGFcPWFayYhsbXrLyi1Yq2zJZVVBQVpN3zBQMO1yWJvfZpDmzrXfaZNt6l51t6labm229pXqgrByubkvALKBmCSbTSBKvwF65CPT5sIsmrchY1BUvq06k0nRHow8JKxm+4FJYoU54/2N2z+/PtHuuud4WP/CgdacyNjElr6wmAajCbLGQUX4IsK1MgyJI8GEHUUjHnEYOIwL9ggwGowXJzloS1KBktLqUsi0OP8AWfP4TZhPVsMzhq4HbGtVwai3du+ByO+ubx9vS2263zUrdllk1ZLlGy0rdPfZgZcgem95t77jiXKUXgGYEYBSrGqq7hL9cReHZJX8xiWJ4h/NO4cQzOiAdzzuGE8pDfE/Dqp5HHnlkFHh5sfmFL3whKDRKSYjnwfw3L3i9I/HMz51Qeu65okLeeXxJJGDKuSs+ykw696A4p50dSJwfyFeEQOSLDMYS94kf5815xbP629/+FpZXEgfg804IzZo1y7bccsvQ2bhPmDp1auiEEHmsT/avfe1rw7w9y0H/+Mc/jk4NOVA6T14XjlOmTAlLQOOdmXjEd7AEhLx9PG28ztwjrK8d3Hg5vy4D2iJuUHwljj93om1Ih4y87TiHH+LSRp6Pp3XgIj7nLiP45j56sWDBgtAGpPd6uh44bw52pPf6+j3ikC7OK+TyicuQI/cI8ThxGXidnAcnVn7xEv6JiLwg8kOGHL2tKNfbnDzH5u3PqIPX0XnimrLRo/vvvz/cO/roo23u3LkhH3SMtE6J9urBtt270O46+XS79pwLrbWi36aVei0rz7lelrcuQbNXD28A8OIxAMlcxlbXNYRl900xRqE1gS4FpPiVKQF7U/fZjjklz3rmNlvZ1s/f1abssoPZFvKcdS/8AnlBHV15h1VAnV//ckI8wAcqAFimaIy20jCSGOm8GH7kcXv8kqvt+j+dZ8tvuMOmtNM2JVu0pjo68/wB7Dt1DauCJCiWjCLggUq/QFog0WBmXwreVbIHR1Zbacet7XWf/bDZnjtH3j0Gi7n5fhmcvBS50rDrv3G83f2bP9nkcsNaGs2kGzXrlgFhVqch/lYVc7awL2/vvOy88HK3llGn1T9m9qkLBkAcKaythM8GPRHwu2IBlLyAZP4YYIsTSuqK5UoDmAE+Ts8E+DE0dHZ4ioN4vIMRn7y9I8NzvDPQeejYfo+ODg90YO+cTt5ZyC/oqs7hhWvnmWuvK/fJH6Ph9YvnyT0P5OV5PPbYY2Fdf5zIl0C5EKtUbrrppiB/z5N1/XvuuactWbIk5BdvJ4h6Uj8M77Rp08I15DIZKyvSQ34NufwdENcHpE7xZ05x+UJxgwxRPu1HW9K+HMfmQTnEhxdvA8jzgC+vO3lB++67b3jJHifikNbzoWzPw8nbHPK6Q+uLuz5CL0lPHVw+LjvPm/s4B/59y9i8XY7EhwfOnyhOnIhP4L7HpSzu0T/i7bV48WI79NBDbdWqVfb2t789jA5//vOf2y9+8Qs75phj1l3Vc9fH/qd91el/tvyqYZuekYIPjoQvbMOSSQEUH1kBmABtQwCH2NgTp56VwOU5h/11AqDpvC3lBrF1ZBM3foOWl7FVAd+QAK+WS1n3zCnWvclMO+D1r7H0FvPMNEII2xr4MlJGD3DGhmC6XuMf0ak0LAugqXMiDWuI11RaRioXXGJ/++3p9tjNt1q+qgapSyjNthVlnPK8WK7UrMU3A+I0vGNV3ssHVlvv9BnWL3AfKBbsgLe+wWa++XUadwqAwJ3w044qiH7Hbp7X32q/Oe7rll2y2jL3L7bp2UJgs876/Baf5curUeaLxd+jfUV796UXyONX2aoftYrkJKsd6oAkIyV8NumJgN9BBPqf//mfsPLGCYVCMeOKSAfkOg4a0NMF/ji4M797++2321//+tewzh3PhY6AgeGDpu233z54fIDlExGKP3369M5VRNST+gJAPhKIlwt5HCevh3u0TnjR/iKSOJDLwg0WAM4zAJ2VVDxzOXJErk4Y2//3//7faJt4x+d7gZNPPjnEIV+AB368TIhRAR94xY1QvB7wivG58cYbw8did999d/iIj3xmzpxpc+bMCbIEKJAtFE/v+TpPgBq8jJUbz73u1I2RCO81WH0DvzgSL37xi0PgnPwBKp7BCwSvlEHe/iyuPxBlvPCFL7QTTzwxTAlBzqM7DHFZIHd481Ee/DMtsnLlysAHz+GF9nM+qA91oN355sTl4fpKfpzHZeB9AnL95hsXlu7ywR8eN9/QeBp4pd94XKYCaSNGMuiMtzX8soppt912C3qPXlO28+Lp4/Whn5166qlBBvCE13/kkUfamWeeGfIGA7yugU7o2qZ93oy92xf1LmhfUti1fV3vHu2bJu3dvjy/Y/vq0i7ta7p2bV9b2lXHndtXd+/cvqJ7p/YlpW3bV/Tu2P5b13btvxbmty/Mb92+qLhN+5Li9u3LSju0Ly9s3762e7f2VUXF79qlffXEBe3L+nZvnz9h5/a5fTu3/zxzj/avJ+/UPmvHw9t3HvOJdusHp7bbV93Rbi8dbreHa+12rdlut9rtpv7UdCTofwgNP5br0UVDccuVdntEoX+oXT3j3Pb5r31b+7TtD2yfNnnn9nldO7SvnbSgfd2E3VSfncT/Du0re3ZuXzNhQfuvuv+7mc9rX/Ka97Xbl6v8fuU5rKAsQ/lDZeWr65Uj7Qe/9N32KTsf0j5/s/3aZ+fmt6+eslf7b4WdVN/tlP9O7UtLm7fPS89q/7Vrq/af5yxoH7/lnu324sEoPQw39YdjC6YpgPDs00UXXQRitKUs4ShlDkcpQTgSvvjFL7al6G0pfidVRFL2tpQqnHNUpwjncRKoj+bF0cvxIIUMeTvFz+XZtmV02vPmzVsrDfkIBMK5lHj0vsCyvXDhwpAWXp0fecBtedghjtcvHmRA2n/6059CXMpXB2pPnjy5rQ4ZnsNznG/OBV5tebMhzV/+8pe2QH/0eTwIdNoyfqNygi644IJR/gnq7KPnXs5nP/vZTuyIJxm7cI48PY7XZSxvApVQBy+Tc4FGOL/iiivaRxxxxFrlU08Bwmg7kQd8c77ddtu1f/KTn4zm5TL1PJHBK1/5ylFZeSAv8pQRCu143HHHtadOnRqeyWCGo7edDE37pJNOWqvtKUdg3RaQj+bHMV4O+cTlLiAPMoF/0snQhDzh/ZBDDhmNRx5j0wlMOyW325deemloE/KJy4R0MhDtD37wg+vo6cEHHzwa19uFfDl6W8qQt+fOnRvuEeQQhfsQ9aU/QTLK7Y997GPtrbbaajRuPJCvlzV79uzQRx566KGQFpLB6ZxF/QBeqf973/vetoxsW8Ym1OO0004Lecj4t+fPn9+W1z8aktt0TbHcQMUy8ogLsnA19p8Ziaxw2MQMK1gZtmpd3iEeOcs+EwrMziTSYZsDAj9UHjZ0U5oUUz0aMTBKYL69Xa5ZptywnnrCeuSkl1aXbU49aekHHrMHz7rAzvzi/7PfH/t+u+JDnzW74EqzQaUdqluyIm9Jpxn295GzhNOjS5OKWiov70DsNMRTI5/TCEQPixnLHravHfyjb9oR3/qybf/aF9vgtF57sDZsy+SR1/gR83w2/MTiA+2qDc2eYa/87Mds3+9+xWynLeRayPLn5F0h84asK3M9jy61Kz71JTvv+z+zrqWrLb14mU3P5a0mT6VYjLydaEhb1FBvSpjqYtprDSmvIP6OtYXpf5K3/2QknYnauOMFcJRCh3PaHMIDIw7eDke8CbyOfwThoeORfPrTn7ZFixZ17kYvQuGNcvDkKBvi/Bvf+Ibts88+wYuFV3XU8AwPlqEsHp46QXhGfeAfYnqKEYXXi3OmKPDYIOK6HKgjXvGrXvWq4PGTH/fwTP055GXgpREH+ZC/QCh4dZx7ntzzc5exgCbUE+IZHilEvb3u5Ov3SEe+nFNvbz8vn2c/+9nPgkxPP/300bwh6km8+D2uyfPOO+8MUwPveMc7gpyoH/HgiXKQAVNP5EF8yoSIQx7IkREdH5jhwcK3QC7Eoe1IzzYVTDf88Ic/DPeRB+UQl9FenLzOlEU+yB1ZUS5l8RwZkG7GjBlrPYOQA7ySjjyoB88YKZCOZ9yDB65J78QzvG3ixtuH9zXE55o84YHnXiZ6d9111wU5MMUCP5RBfugB6agv+siIVobUvvnNb4bRgcsZ4hz+yZc09IVHH3009JHXvOY1JicuxHO9Rr7wAy+MeJA1o2XkzajFv99h+mcsJesjg5YWECYzGs4wpwGwA6btVghcZwRwEZgLxBvNtfbnR3hBIKaOxnx9516LlwHKJ+zAqWPYbkG3ODJ9lFBZJRnO7kbdJg9VbeqiVTZ4zmV2+js/br/Y5UBbeNwPzK69y8LqIn7TVpam1YZDCVJl18UbL4b1IEycpFMC4aSUUsBrXTrfZ1fb6rjP2hGn/szmveXV9lBfwR5M1m252HlU4L77R99nL/39Ty1z1CvNcDLyykXGI5VqycjIyEmQA6ecYee+80O2+IzzbfNKwooDI5KV6qE8+A2AWi16KZnPFa1eU0eQcUvwA+wB3DsEc5JvG6eN+nP9L0IoDm1He9Ge3jFcsXgGcd/J720oka+Dt3di9vs5/PDDwxAXokwHVNcrjgCL36cDocRMJzB1cO2114a8IPTyd7/7XegwxIF/npEGoiOecMIJo/fl/YeO4s9IT6BM7tPRXAZQvM6eLvQF3See80zZDvpQPJ2fuyy49nTk5UR6yOM5UQ7gA1EHP4d/nt188832H//xH6HTQ/E2A2Dj5XEkD68DxDQB4A3xPM47ZXh86ub5EIdVRg7oAKAbFK8H4A2wkY7pRNreZe48EdfLI54/93Koy1h5+DPiExw8iedtF68fRBryJo6n93Li8vJnfoQ4p17Ehzw+crn33nvt9a9//WibkD/lwhO8eBrezRDvhhtuGE1PPPQfIn/PA4obL/T9da97XWhnyoR4BpHHYYcdZj/60Y8C4DP1ymID3otgPOhrYykpnAvvL5+UALJO0GA+hLHX8eDPWpJbPMSJtf0EXiLnmg3rrrWsr9K06UNNmz3YsBt+car98tj32N8+8AmrXXiZ2fIBS0s+XepT+aZGEAn21gf01Wn5+ApBCpTbMjQNjUhqMmThu4Ct59ruX/iUvev0X9vmrz7csgu2s7f9+Du2+fvfajZ3sjJTul6Bi6JbWQUMS/CrK3aVvPzLf/QrG7juVutaNWS9Gr10JQUcEladL49FMbUIgZfPof5xb76zdJMdPZ9KzP9McqWJd2jOCZx7h4C8U3F/rHI+EcWVk/QoOkoIfec73wnzjhCdnrgAKnEZPXH0zkJZPIcX7tGp8GA+/OEPB5BxoOH5QQcdFDo2HSne4UmnoXLoeBAgBxhC5AdgkQdp8PbpRM82UW9kQnCgAiSRsY9cIOfTDTIdmxFS3FumDnjsyJA6IC+O1AnyvCAHVcqlHJcTIPOXv/zFbr311nD9VEQZ8MOyVYi8MLzOOzw5ub7QtoxGeO5tRvnUGWI1DHnG0yInPFkorlPON/EJ5MWRZ57fs0leJnJkPv++++4L9YJHD/BBXThHvmzdgR5y39uEPLx+Tlx7XTl6XXlP88UvfnG0fqRl5Mzxgx/8oB1yyCHhPdlXv/rVMPriPQ/ffbhhiVMMof55BJykZAkI/OYs2z9X07LqskItAWSu2bbekZrNHG7aivOusl+84yN2+lHvturJZ5st4lsBCS14XiwIlVAExA2WipK3LtMSBKt1gnudkfIXFbbbxPb62qftxT/9itlhC2QUNGKQp9/I0kASDCuF2IP66rvtb8d+yJb+8XJr3bnQuuoJK+SzYRdRfjiepZ/hI7dQ2sZLrnh0LFaTsJkbHwhdccUVQVlYQUHAK+cFMaDAMBVC0Z6KPI4rrZeHouIhUi5xAAV/5h2ATgURh2fupTnx/NJLLw2bp/EMYnjOUBtDwHM6ZJy4T73wOK+//vpw7QTgOp8ssZw3b144fzbJwRAZUEdAm/rzspwpF/jhPmDKkYAMmJp59atfHZ5Td4COdsEjjIORyw4CPHhRyNSIAxHkPLiBYDR19tlnj95/MqIMAMjl7PKEX3hweTpwwQ9xf/nLX462L3KPtxXTFORJes8DXogHuX7wjJEg8SHikIfz9M8gZAt/yA65Qc4D97xOtBEyYAroBz/4wVrt5iMxr587WOgC6ZENz504P+2008L+Ty4nX9BAXr/61a/smmuusb322itso4Ku4Pl7vnH6PwF+CICORhryOIURGABAX+MES7caVmRKadWglVYO2Ly6LOgdD9ivP/pZO+s1b7KHvn68tFTezrIBS1Trlk2wbUNSyjdirQ5AZCW0pgxIW8daqm2raupARXWGqRNt0CrWXx2iZEvzE3cMRyotW3LCKXba+z5tqy+72Sb112xaM2sTMxKavP1ytWJV9uoXeUfZmMk7Px2WVSQMQXnzv//++4ch4sEHHxw8aK65z/QKO3GilA62T0au+N4RScM9wBdvhM5K50F5fSSAR8h0A0Nn4rI6Ag8SjwV+UWAUnDy5phN4x+AI38z3kyfkfDovTPGw6sSBx5+TljalrLe85S3h3rNNlEkd4JWynSd49ektnscDxLsAH9EQD1mcdNJJ4RnnLg8Hb8ASj5Q5aOaLAQTKoDyMAOX7NYThd4OxIeR9gVVCvH+ZPXt24IF8Cc6PH1nFQnmUQVvS3v/7v/8bjLYT7eL1dSJ/dkFl9cpnP/tZ+9jHPhaMPfXEqMC/t7O3/7NJXgb1R+7xPuFypQ48o89Qb+6jw9yj/vQ9ZEAe733ve8NKHOTEMkzI8/ayiAsxyvL2Ig/iEBd92G677cJomFVQLPn19hlL/2fA35RQCJE6REYgmgaPwL/VrNqUCSWb3luygkB3Uq1u81pJS935gN3y45Pt7CPeakM/P8Ns4Uq5DgJ7dYZ8XgrD0km+4JUOpIB2XtImMlbo6rN+5TEwXLHuXLf15gqWGBiU5FToI8vt6k9+2c79+g+ta8lqm9LQMHZYQ2sECl+8pG5HL5FSrNdnD6ONnLyTUCcUh2kDFNPv8RwlRHFQOK5RMgelpyLv6KT3sgCs2267LeTv3hvx3ONBwd/whjeMgjdADph4pyI9PNChyJNhs5N3pq985SujXu1YAGOzNJYEQvDl9YXgg7lQPnT5Z5B3yLjMIepFiPMGUXfqCHAQqB88E48pLPIDAOPEEla2dkaOxMUbZzM5QMPbhzSckzfEy80NaWN0wmX8pje9KXiajMKYyuG+k5fj9QEEGfURh8C8P+AP8DuwuVPgBL/z588PS2ABftIA/KR3OXp8rl2Wzya5To9tJwdk6o0Oc408fWrT5QzRjugzebGkGqDmml1IN91001HjHZch7XXBBReEkSuEzOI8kN71g3yRi/Map/8T4GdFuwdYAPABWLfTeP7ZUs6WrFxqK/tX8n7Zss2G9SjGzHTeJpdr1rtolZ35xW/aaa97my35+e/MdG1DEtRQWZVWTshKB/lU8tRlgXVZyhatp9gtLdEFPyLTTlvjvEvs9Hd92B44+6+2iTz8UkVgzzcAdA5eTncsNxvApXWkEfhGYWMn7zCuiNTTOwyKRJ2RAYqDMkGADxTvlE9EpIfiIEX+gDyKyNHjuGLyAQyrcwAHiDXK2267bTgnTjw+/PMi0zsaeVMGIxfy4Zx41IsAMdLgxZobCYh8PN93vvOd4fjPIK9jHPDhGV4IXh+XOXKkri4r7tNOgArr+qmPt5sTI6jNN9881BcZMLIC2L3+GAbP38kNwVMROgHowBfvRJifJ0/WnfNDMuTh+XgbwRt8MLXobQL/8M2165k/40iAX+bI4Zf2Ij93HJxcj3nmgPlsUtxxQQbwBa9cwwPfWTC1xjVtxktZCBmRFlkge76E33nnnUdXdSFT4jBFQ1rXD8rgvhtFdBx5EcdliE6R3mVBGXH9jtO6d/5JxOwKAU8f0Oclc1itLGLqZ6BRtXJW/n93ztpdsoxy4UdUUfbcYXVwozxiswolK967yP766W/Yn1//H7bs+N/Ke1+mXqFOPSJvXnkklXkpI2WRsNICdD4ys0Ep2GDLHv/uCXbGZ79qjRvutjl1DZU0GqjxwyyljA1lmtZvVRtUHjQQH3/xERhC7fS9jZpQHgjFgbxzOqGsDjIQyuMeJcq0oeTlcKQMV2zycKWGmGahA3AfRaZs4vEy0xXXO4Lzwgu1OI9eh3e9612j9YIcSCAHXCfikQfbLhMg7zjPJjmvDlLUyYHDiWs6PASP8OWy4D6yAMgBeIi08fQAJYBAWd4O7373u0fbz0Hf8/TyHYCfjEiD8Sb+7rvvHu6RrxsjiPwI3kbOn4/wnCfiQK4T8To4r07eNsShLH+OPsTr+WwTdaA8B3FkxsiKESV84ZWzTNZlgKy9zX31GcRCBT5UREak8zp527gs4nLwjxHpS+RNnTm6rnhcz2N99H8G/IC8h2iuPyJO2SmUDdu6erqt0Yr2oEBoVIzK1PmRFsVMlCs2NZmzLfO9Vrv9Afvj/37bzvjPT9ot3/xR+JqX6R6rqPLqXNEqIl2zw+hjK+1Pb36PXXD8iZZdtNKmJ7LWXK4yZBgm9pTCfv+JsGto2tJSxGynk6WTCok1Ozhu7BTv8HQolA6KK5DHQTGRfbxTPhkRn/QoOeT5ONijrGM7A+vrWUrJcjRWLxDwZolHXt7ZobHeod8nX6YzIOpBGgceiHSkodPAkz9jbh/eSP/PaN/1yRFe4vfjBgiekRVH79Cc4ynG24Zz0nHOFBC/h0CdmGpg1Qfvc7iGMDrIyNuAegNoDtxPRpRD+eSx9dZbj8oRGRLIi0Acj0uAL2QPeZtSPjxz9HbknGfcJ523iRtKzw8iDfE8eH2ebaIs5MWRqSimuZiqRMe8jjyHT66J5/oPz/BJW/BlNe3E+5f//u//Du/SaDvSkQY9dWNJeqZlva0JyIa8vI85eVnro9GYZEAhrhTPJgH04YfXFWi6tv7wchdPn1EAJPttybKGRe2sdadLlmigQFL+XCHMs7P3Dt8DjFjNhpoV65LF3ySZt/yND9i93z/Z/njEW83+eJFMar+0RSDRVGeplK3/9LPt569/m5VvvNumSse6lWei2QhTS81ktFWwfEpLNiRQXg53eKvDX0daPjJ5MgodgdAhlRIdO8r6r0Aoi3cwQhzkOUeBOfeOhCKFem0goUt4YqTxejtge57xzsC8JcoP8LO6hU7A8jTixvWS/OAXGnskP0YPzDs7QDp5mRAdj3wom07LBzIQ+fwz2shHNT6KgpB5vPPG6+0GFBorD3SWfHw0422EHAAQvHymHvBC40Q9kRHpKRfZAVAuyycj0sZlFZcZ5cMfR+cF8nOeOf+ejjrBi1/zPJ63p8XDdv68PV1/3DhQj38WwQO69L73vW90OwkHfcinhJAx/Llhg7x+rPjhHQfz/AQcF17E+3PqTp60EXLBWPNsrL44ebr1PXNKeuMhPDIfq1TPBvHyNiGPnqBq6V80398KH4AJ0FtJSwtlCVl+aEVH7iUVole/ayrE+njy4MfbC2rwiZWmTRtuWvr+x+2nH/iEnfaeD5vdeKeZri/7zJfttC/9P+tbMah4DeuqCdTgQ+nJB+Bn3T0/MhN+DF76hZFy3vh5x1B25zuFJ6Mg/E4DQC3lSdiQTvXPIpSRTsLLVOZpWcnDUrDnPe95YTUP1/6ClX1dmL99MmX6e4hyXUFd3+J6xzMC8bwjUzadhwDQEbgHYHCObDnSUTAenj8gS2chH9ISz8uiIzIkd3q2dd8JD85lCT+0BWU7z15nBzNf+cR94vt9rr3u1JO5cPoyK0Te8573hJeEP/nJT9YygsQfp38MoWu0Be+ikDvXbqSejMBZ2gwd8BE2127MaFd0If6MfDnGjcfTpaB5KBwZUgHvGM8m4dW3xwT39H3qB9CNRgUO+ggkCmEqKBiJKE5OfTUtoSQFrHwL0E40rFBr2NyaLOz519sfX/8B++ur321DZ15ic0cE+CMVK9YB9w6wq2y8eUYcUHxEEqaHRPAnGxRCXX2ONE9JnU4MuUI827L9ewilw0t585vfHL58ZdULa/mZXmE9N8sAWcvPp+I8wxNBGQGpfwS5UiMX8nXQ5QhvBAdCOoTHIcCD8+Ey5T5xSAfg+YdYeMLeGTl65yIua/bZGI1Oi1ftPD3bFC+HjgwY0/f4OAtZ8/0EcifQDnyzwPcUfG9BPUlDvakL59QFY8KKGQzZFltsMbrMEyJvRgDQP6r9nuuE7F2feD8FNQTY6N9TEfEIpOfo9+JpXdchB3vH6WdKSe9MKIMr04Yw/kwpAC0hBqDrTqHgaUeg247Fg/DCec4yS9IF75w7HQ8+r9CXTNlcy9q0/qqVFi634tLVVhgqW6HJr4QpbgfYAfo4UVYEE9Ez8nfeeDYm+nopNFgM5JEz4V+JUDrmC2lvX1UA3yigD1eJ496iA4cD5z+KkIuDt88vUy68uKJzzj1XeoDa5enTE/EOQVwAnZfDELoN38QLbSPimlVE/hGM1++fQXFeqQuEgeLjthe96EVhtMVeKwRGWxgxvqfgs32Mcrz+nDOFxvw9L6h/+tOfhvvkxzPqSZ0xbP5icJyeGdFnHCfRLdezpwPKtI1PCTnA+zXP4mXRnk+njLEUgJ9M6RB0eDqMF/JsEV3cvWcHdvf03QN3z9pDQ548UzHR1E5ExPP3AsFLV38G0LMK9TK/LJSwbCFrtWbNyjWWOmWtlMtbgl9m7xBpiE/ACJBf4E1lulHyFUcc3QhxfDJCjvrTuVJaGaF4A/4r0PoUCP78PvoAOTABIKFe/yDy+X4Hffaw//jHPx7WavNil/XdfKzDNR/vsHabc+ZDP/rRj46+xIXQYzcgBOqBh8yqCTdqDoIOmNTzgQceCOf+FSjg6Pw8m4SjRTnI0zs7Bgweued8wmNcZ5jKwVB5etqI9HyY9ra3vS18RepTOYwqeEYc8mE6AqPg7TlOT5+QvTsQ3idczhtCjrsERp3oNz/KQ0Dn6QcEztFzFj2g9/QJ3l89Uwpz/CgZygAz/8iO/UTEfDkeuwensJ+NAuv4Adamjh6ie/AWvRuIPPUoPQDN6AFAhvD4sZh05v7BgdABugpFq1eq0UsyNo0LcSk7GjWEkUMruvb5fM/PQZ8yOfoo4MkImUqgnauI/AXvvwo5wNHmKDHX6IADI+TX/syV9ZnS+joIa5cBdF7qcvQXvYA9+4+w2oFzOgMvwTAOkAMndXDeAXw+YYcASwgPmM5JfYmH4eHzd7aj8F9NAjQ9j2eTnAdk6UDNdRxEHFy4Rzz6KEd/p8Ez9IwXuOwmCpEHaZEv8fyFI3v5sLUDW1K4vMbp6ZO3TejnHfL+5McnI+IQaC++tQD40Wf03XWelT70Ba5Z7EDAMPCB1zOlJEoCoSgwsSFMP1Ny796JUwdvB3AMAAAuNbaUQrITuOYVK549AcJIsOqGrXbw1INXnkxYrpC3Yr4QdhRt1HgbXrBkNmfDeEGK7947AeLgoB4HduJx7e8TCHH+10dhygJwo4E7//6ViLaGABL3Lv0ehFLzzO8T3EAQnim5ngFgDnwAkk8xedlsNAUw+4+0MOfN/DfvIZj39riQ8w+fbATn+cGvlwHRNnGvl+2eicMc+T/LG/ahPLzSB33enbZwMImDCnGIS4ivtoJnvlZ2GcA/z6gPDg9TeWwB8P3vf3/U2MbzHadnRq5zkMt+Q8jbi3ai7X0Kjn7BPZY2+z5ZBPSfI+/c2P7hmVKy1mpbTcDoStVsS8H4tBXvOhaiVS9rgNK986cTpO4dUF+7jIg6z+XVc4zEM5Y6cfQ35NGh0VGCErGDpg+HETLfA1TqNcWOVj+E+J2pI+eJI0YlynPNvTX8RXxFIw4MJs8jeUTTQQgoyiFJx6af6VZDDdkOG7tFefyrkLc55AoMwDgIIbe4I8A1YUOHs09Gni9lxcvzMgEnPFb2mH/5y18e9g1ihZHPeXPOkTjwQ2chLWCPZ89+59z3vKmn15Hnfp9yeHmKIQGM4/V9Ngl+4Qme4cENE3zRBhD88pxnnJMGYoUP97mGZ9aPk5fX14Ed2TDnz174pEfvqbvnM05Pn3z05f3HibZzPXsyIh265m0cJ9qRJbjst8N7HY7oOuf0BXbifKaUVLexbIYfX4g+EGE3y7Avv8A/1VYIFYvANALW6BgoDop/bwAeOyC6dtDjJ+l7gCy8RHP+EfjyQtdDnGgc4teJk0uFPfSjfXw6hk33fQqJ9wfx6aSxvI7GwVgkBTK6TvLTjGmBleTWqui83LaM/pUbbdt+v73FZDnIs4Yc2UaC3wsW8aM2/xx4eWKKA1xceVFEgMbBfawSb4hSO7lCc/TpBfeoHdzd8+XoH6k44bFSnoO08xwHLl8d48/IHw+YL1qpF4E86JBeJ/hx3rgP8dukfw/BO/kSKBOeOMcb58fXIcrz+vrLP+eXfW0AZievu3/aT17IDP6pP0cHdH9nwT22oPB9W0gDxduW9ftxYOGc534cS16npyLSUheO8R/6WF/bkJ+XxZHrOE8QckNePI8/4x71jFM8P2REmZ4Wiqd3mUHEW1+94/HJ23XiyYg48OX1JU8Cfcf59SP34dN1Ic6TL0yAPD+u4cnTMxrwOqIncX6fLiUbpbxliyWrVzQs5sOolBpFYAZghpepsTkPPFaf536mBOsbEp6I4I/w96SBNiQO5AZorBFy45fMpm2gPGi5QvThDG3U3TvBVtdkSvt6beu9nqferuEbcb2hNLoiu2RHAf7dCcVF4b1DQMgKwmul86DIDvq+BQOdz1/8srzRf8Sa+OTjHu9WW20V3tlwn85EGrY0ZmUMz+koEOVzTjxeIJM/5dARvROyRz/bNfPMjdSTEXl5h+acANGR2aGS8uisBHgGHMkbsOfINsqce+dGBuw9xPCe+MSB/AivlEHd+Z1c8uUe9Xf94h7n5Ol1x0iQzr/2ZKte8vRyIa555udel6ciN1yeJ7xQroMcbc01efPcDQH5c+3nkE/JOZGGQPuQjnr5c8rx9JTjdaVO3p7cI5A/cTwv8uDo9YU8X/L0dM+UMNbeLsiJdnCdhidfQcY91zfXWa+b6yi/reu8Q3Heny4lR0oCsLqsbUJe2XDZ6uXok/aa0D2aN8fTVcPJm2atfE5eaxbFouzO1MZGG9YyFxsempLPysqwTZoz21YsW2m5VNYmTJ5kjw+ustrEglX6Cta9xy4hOmJiRU8gef2CC/2LJn2eC0SH9s5Nh3XPlxeuPEPRXfHpLD5/yTNezrOdsHu0TFUQn7R0CjwhOpB3dgCCX4TyHxaPgxvP+FCNZZJ0IJ47aPOMPH/5y1+GuHS2pyLvnOsDCkCcZaK8WIUH77AQ6eCXuvkvUsEHq4ve//73rzVSgQAD55W6soOjAwoEcHj9AQR44ejp+Xk/jCq8EJdpIa+f5+NpIMqK8/tERJmkQ3a///3vQ3r4Y9rMt172vLw8AJDz+I/ik08cyFwnuE960hD4gRje6bgcfH8iiDaMy4tzyvV2Jq8zzjgjPOcZxnUsEc/lwPkzJW8TiDrhDPgUM+XQF7imPAwnX+pC8Ecdabf1EWni7f90Kdma0m2PDK6wQm931FgCRIwAxJRKNLXDXHZHMTrTMdH5mhUxG2NYrzHYkCBEz+QLNjwwbPmkvIl628qSy6pEw4b6inbE+95uNqGoaOqAjJKwAMg0hVJKGQX95PLvTK6cKD2dnU5Ih/WN0LgPEHEfRUehAV9WNwD2rFRhJQ+eMUR+eJAE4pIn4ArReTAaABwvah1w0GfvgDznNwWYI4XiHZO4eNm//e1vRzvgU5HXjyO8EOCDMjm+7GUvC142RP4AJPcJ1BfihzkAQeTCB1dnnXVWeA6QOX+eH4S8yJdrwAMiX+rGMU7OHyubkCPAh6E5/vjjQ3xofQDnAPhUBI/UC1DmJ//4aIxlh+x5RBvxzIHO6w6RjlUsfg3BD/Eh94CJRxzqQcCYH3300WHnT97v8N7CdxqNtyV5oVvcIx31gR+2VOBLZva9Z1WYk8uJsuCBgMyfKZEv5Trtueeeo9fkH3/OaJDpScCeUR88MtKlDsiCuNSTI/LZb7/9QrpnQsltD9vfbGqvLW+qsbKZoIQSmbx7GYBO/cP0huTTEJCFNfVhPjx69lwkRjt5BDJYtZ5MUcPvHltaGbHhnrxtdejeVnzJgXIb1UhqtIRkyT+nbEIeYuf835kcPBz8/Jp9cQA7FBiKTwFxzsoFto0gHj/QEQdAAARvmrh0CEAG4OEZaXkRzLA4Dozesek4LHkkb+J6h+KcZwA32za71/9U5EBFPpyTFyDjAZCCACH4hk/nxY/ch3fygGfqBsGLgw/n5AeflMNa/ThoMgKAyMPLjhNA+O1vfzv8ate3vvWt0dET5HHj+RE/DqRPRPDl20hQNrtSstwWw8nogucYYsrg6HVm1IVMqB9yh9wwsI0xFK8D8YgP8aPvrHZhwzl+jMQBHiIvT4duUR5pPT3fN/C7y+hI3LB5u0Euhw0xfBtCbvjgh99FcBnAM3WG/B56x2Z3rOn334yAH/KgDvDEOff4sfZnSsmd33mM7fyKw2xhomKLE3UbaDaszPbFQvaMwG10n5w1usG0dXTtLz+fY4G6NysN6+2dZAO1hi2ujdjyXMK2OHRf2+1dbxaaSTbSnUwuK1lFSuVKjpIlnwOTPYAByhr3egA/pmfYNtlBDqDhHnLhnCNpPR15EBw8XY577LFHWOUAwPCcZyzhJD33HBAcoCmP7YPZ/5y0xKNDcYQYekMAgxulJyPvsBBlO2h4fnRiQJq8eA6RxgOg6ffp0PDr0xcOWBD5EpAN67f51oH0/hwjCvg7OHj5Xm8cOUZSXDvY+NLBeBlOeNEbQrQR+VIeeZMHfHHtxh6iXvH64HU7r+ThRFq8YsjrgbGD0AXa1MnLpT6uK5yTjkBeyMvJdQFyXhyUnZc4jb1+JoRcMDzM8TOaheDZZU69qCcyg2/ay3lHrm7QOEdHAX1065lSEm9/xze+yrY/8mWW3WFzW5GVp8pXpq20FeTe5zsh10jJCKSCMSDI6Q8jgo01AN5PN0DpfMGWlYetMrFkyybkbNMX7Wf7fOy9ZrMnqzUFCgkZTP2jG4YQpnlUMOlbnUz+zYkO5wAPeUfmC9y5c+eOXgN43hFQfif3dlB6QJL4dArAm+WakMf/zW9+E3Y5JB86FmmgIHMRw2P/SOvII48cBQPydSCkEzLXzovepyLKjQOEl+NHiK8tHczovHRinnMEvPzjKvjlnl+Tr3u5Do477rhj+JhnLCgBKD66gDw+5UFu0JAlz6gj0yWQ8+qyhxj1/L2E/JC3e6QQZTkwOy8AFvtC+TW8xGXyile8YvRlNPnQ1sjZ2zROXg55IBNGcqSDj3gboDPIGnKdoHx+VB8irvPjR4/3TAl+CBB69p//+Z9hlRWEQ+DyoZ5eD9qLOnvfiMuPqU0+4nID/kxIaCTGdtja9vjSJ22rI15o1XkzbHBit63OZWxQhQ9n0lZRJxlRKKei40i4JwOxEYfyMwhDqv/jbY2OpnTb4xOzts8732D7fuMLZlvOkfZI6QAjwF3/+enHIGgZAn5jACtQq6/xRv6dCWVHmemkdCYU2AGCj7HwwFF4CGVHoXkOKHMfT45rB0E6KSt8/vznPwdAdc+ccvic3TssedHhOBIo198t0MnY94YO5Z3L83Fw8S+Cn4y8Q1M/AuVAcfBgozhGEAAtcSDqRRyOeHnwQF7U3b0+eHSeeE6H5yMsViTxHCDz8qA3vvGNwRgiZ2REGq8bxDmy5Blz3XwRGicHUYiXzi7HJyNvN+rFF9YANqDlbUUdaRfI647hgk+XEe3sBhge2YqA0Rj64eDmcSHOPX78vqclbyd/jiwhFhV4+wLAjJQ8ztijp3mm5HpMftSHqSx+9xm95xnyoU2QD7xxDsEHaWhj0nOf3xxmOogVXR7vmZDGnCW5A2qYQtK2fM8x9sYTvmvP/8BbbcW8qfZQX87uyzTt4ULClvVmbbk826XdaVtcStnyQsZW5DfesPIpwvJsypbJc1+RS9uqguqu6yUSE9er+4o2uPlU2+JNL7Njf/M92/SDx5pN0MOiOmNRik+nTKCg8go7ikpTJWU46VIZKcGarvbsEnPeeLpjlcWV3D1yBxrvpBtCPocbB5l4Oe6xkzf5cs4RoMFLZD6fLYMBNp45UAA83klRftJz5KcRWXJJxyE+IANoAooAG/l6/k7kRadnm2nSwCudiOkRBxHKIn8HU16y/fGPfwzn5MeIZOzIhXqTtwOUy8/l6kfqduaZZwbDRMenLPjz+jnIwJsfPU9WguDhsQplt912GzU2PrdO+eTFaIAX04yiIPJ0o0sdvQx+hBuQxnhy3+sL+aiHNKeccko4fzJy/iG2g+ClOvPT3tbw5TLjuwZ2f2W7COTCM28jb1snyoZPl4cbIeKQxmUAINLmEAaHKTCm+vydh7ct5RGXF6jcY/8b/9LZy43Lnp/79DLRbwhjSJv7fQheqCfE9Iz3BeLE6wN5/+A5fZEFC2xJgmMAeb6e1q+dH+RBX0HvyWNs/k+HEi3VQIMjq+lfkW2P62qQpStVqiz6Qwutct9DtmrZcjWQOpYY4eVkVgCWFANhIf1GSBvCNg1LAyB8FzYNSAfJTFIn2W8P9RY1qHC+LbGNCMpTiWz4ERdr8cGW5McKoE5ZqHlL/xySUBlm+58tomO6V4aHCFjQaahHXHFQaqYY/B7pqK93nCci8vI4KL138ngZdEg6BQT4IEv3CJEv5XAP48T+8WxHzIdN8EvexN1uu+2Cd8+2tz63SYfHqDiRBzw4IJI3wetE/nQg5zleNvV1gIS8vWn7uAx4KerfE8TLfyL5ERwYnIjLj5Iz2qEj85zy4IvySIPXCiC89KUvDYDuZToRj4AuUg9k7PW+4447wotPDAXfRLgO+G8r7LrrrsGouFGAqOP6dMVlBJGednHZQDx38nMMJpvF4dXCF9MpjLRYiRQHubhc/BoZQPDDyAdji8yRGc+8XPhH13j5j35gODjS/jyjrdEjfnSGlTHkgXdP/fkClhVFlEd7uT5QL2+/eNsiFwjZeNw4v64frhvoOHy6LJ+KWMFz22232ZVXXhkcGsr2+vMbGExfAfa8ECdf5Ixc6FNxGW4I4YC4DKFEG+TXdTWsMMdHlYXSWQKjU1dj8EUq69DDWnRZxtDIihWu12S00dGGsu4KLuUI5zQ261n5ajjVtpou+Q5X3VxSSVqOeX09bslAOiHTsAQ20QoePxTuhb/PDqHMdIq4p+odHgVCgd1jRsFd8d3b3BByIHCFincUyvD7lEX+fu0djTgEL5v0zhf3/Rqe1hd/feRlQXRErw/3qSvX5Os8QvEOESfkRbq4DElDfAecJ5IfzymDuKSJd1TAlbRerj+jPPIhHR3cvXCAwDs7/HgbQtTR0zgBRL6yxstykAJcKJd7lAe/5EkduAcB2tTZ+Xsi4CdPrz/3vR7OIzIgf57FyyCt8899551yie+8EofnY6/J2/mIOx1OHscJPpCRe95xoIeQoT+DR9K7LJAXecEDaXju/MbzcX2Axpa/IUTd4cHzjpcDf5Dz+HRoXeBvNOlJYb1+TeAvVQ8ApjsyABJWWLuumJ2GChecp2FqjfA2JqIm0eDuianRjD7x91U5EL+gRaMmlTqpcRJvepspDQE7sM9KnZQEmVQ6IJBySI0KhA/eKFU3wqno2QT+OLnyxhXHlZOO6x3LaX331kdxIPDO78r6RMpP3qTzjgSNVWye08nHpucez+L3KYd7lMuR/OP15B7lkBb+/PhExHOIdMQbCxCUw/2/V37cIz3epJdPWdx3mUHkS6AOyJR8PL7XxSl+zTlADviMrR/58Iyy47IjDeR5xMEmLqf1AT/HuKwg9Ay+KSMOppxThsvE+fb6x+vo18ThPJ4uTpQVH/VB5EdZbtzJM54WI0H9vI5xWUPxOnv7+tFlE48Djy5XN6KQp3kqIg35ucFweYzlb6wM4rLdUFoX+Os1oZcaMKOMdR8DsAaYItCy2pqhKD9CnkgyXObpmow2NqKeT0bNJgADmK9LdBNAvlGvWlUGIJvNW4ZpMgmO97cIDeDn1GWYRqjhoWhUdGs68T+aaC/IGxvlQakgFGxsB+dIGu90xH8yQvlQ7rEK7h3WFZNrD5Tj5UJe9lgifVzRPa3H5Rr+xt538ueQd1iXB3l7B40TvBCc4vWPd2pofQA5Vn7r49fJQQteiON1geLyjHuRcR7W5+XGyeVHGviMl005/jx+34k68Jz2c/7XB/ykRw4Qx3h7kQdxXUbx+sfr5ORy97ydSOdlElzWnpfLD13kGAdQriF44zzOH+nIdyx4ejryI77zNVbHqR/5xsuDSAdvcR1/KiKty29sO0F+z9tlbHtuKI0FfpkSXeCONtQxdKCKSQTe0PA1iiOjICueL1gyL0EB+rpFJmSzUQb9oZ7r3I+FdAz0WaDTjC3B7MC3Bj05K2QL0bw+jxVCGkVAdqPpFdqeMbQmq2eNUA5XWFciCEVDyfwe7YhSeeeBNkSx6DTkD7igkE7kwTM6OGWQF+Vx3/lxTwcijiv12I4GT54H+ZEOIq/4OcQ1gAr5PQCSvCHukQ+8OWA5ebk89+DpIPghjsej8z2V/OLpSReXEQDu9SJv520sASykHQusgL7n73y5TAnEde+bvJ1XjvDBfcrz+JDzBz/xsp6IHFAxYMQnvcuVPJAR10w1wZvzEJc/MoPIx9NTL9oagkfyJr+4rMiLeH4PObmseMbR84YP58/1iWv4gMiH4DxB/oy8CU7Om5cZlx18kS/lEe+piHxITzpvDyevB88gP0dviLch+T8VJZtCoWZamWVUCRbni3iJG5/kCC9/5dnyFoBQYwkocBb7qGmjCgGKnzzUGgKuUFsJOcGQc82zRqsWdvzkKZJSs1tdI4R6p0GQGx6+dx9SoYZhlOFCfZbJlQNFcaVyxUSJ/B5KRkCpXMldoZ+KPB35OtEJ6Oh0DC+De3E+SENa5yN+hLx87vk5AEM6iA48thNwHR/6c5+6wgfkcSmD+3QmiPwdLJw4j3d46hfviDwnPz8nUH5cfqShPOrOfa65Tz6k9fTE8fvxMp14Br8849wBzeM66LhMuYYoj/sElxFlAjIeB/DxOvGM+0/Ex1jy+mBgSMc1fHIOiDrfvCimXbiGKMfz57nXh/TcJ3ibkcZl6LzBr+cRN/6cE3hG+V5PB3Ty5x55cB/CMfD6wgv5xPmEyDMuc+67PD0uaZ23DSWvo+cFce75kHc8v/g5fDxTYv9N/VMlKCy6FwrxZYj+LDpHGGsUXn82ygDv/KPGTxRYuaTBVzCA4cOtTs0JyEddV2dRA2Ai2dE0k9E1tyNMCU8J3mTKJrpY04bPGqHoEMrkSuwK7IQceO5xuSZOXMmeiFDQoAMd8k5IJyA4eX4oK2nobBDnBOePwDWdknOODgacxzuIgxwU58E7tJfnfHiZ5Ot1dpmEtuyU78TzeHmQjyYgl4/ntT75cQ4P8Wdell97HM+P+kPkCWC5LOJEnXju8nbycr3OfuS+n7t8yJNzN5SUxT14dR6eikhPfPd8XT7cozyvH/G8nuTtxsaP7l27DCBPyz2XIQEeuU8+lBfnH53wvDin3s4LPMQNAAEiXlxOEPkTlyNy9ny9XM69LvBDPSDick0+PH8q8vw9LjxSX/KAnC/KIS7POBLvH0GJVpsJ/jU0tstHD9dWPpDtqaHhX5vWqvTTprXlsj6ZUI53JV4Krx1nrFzHaZz+NchBBgBiSSa//BQnwNNBiLgQ1w6q4/SvRevM8eO7xkMERmtCdD8CtTVh3XgbW4jX+emHteWyPuL+Gs9/LB/jNE7/mgRIAPp4tHi98XsQIO/3Hfgd9PFSx+lfi+KgDyXUaP8Y53ecxmmc/m2IaQgAHKCPAzn3Hfzjq4u4D7gQd9zr/9ejbbfdtnMWGYFxt3Ocxmmc1iHmngF45tKZdwbQOTrocw3ou99IfJ6P+5EbByXmz58/2lLjjTZO4zRO47Rx0zrTOuu5Xsvj58bYSOM0TuM0TuP0r0/rw+8nuk6uD+g9g/U9G6dxGqdxGqd/DXoyrH5i/Db7/x+eFXNN5/BsAAAAAElFTkSuQmCC;" parent="1" vertex="1">
          <mxGeometry x="319" y="213.5" width="200" height="55.5" as="geometry" />
        </mxCell>
        <mxCell id="00VoV6gP4ef_sgZay2wy-14" style="edgeStyle=none;rounded=0;orthogonalLoop=1;jettySize=auto;html=1;entryX=0;entryY=0.5;entryDx=0;entryDy=0;" parent="1" source="00VoV6gP4ef_sgZay2wy-3" target="00VoV6gP4ef_sgZay2wy-2" edge="1">
          <mxGeometry relative="1" as="geometry" />
        </mxCell>
        <mxCell id="00VoV6gP4ef_sgZay2wy-3" value="" style="sketch=0;outlineConnect=0;fontColor=#232F3E;gradientColor=none;fillColor=#BF0816;strokeColor=none;dashed=0;verticalLabelPosition=bottom;verticalAlign=top;align=center;html=1;fontSize=12;fontStyle=0;aspect=fixed;shape=mxgraph.aws4.email;" parent="1" vertex="1">
          <mxGeometry x="114" y="69" width="78" height="69" as="geometry" />
        </mxCell>
        <mxCell id="00VoV6gP4ef_sgZay2wy-15" style="edgeStyle=none;rounded=0;orthogonalLoop=1;jettySize=auto;html=1;exitX=1;exitY=0.5;exitDx=0;exitDy=0;exitPerimeter=0;" parent="1" source="00VoV6gP4ef_sgZay2wy-4" edge="1">
          <mxGeometry relative="1" as="geometry">
            <mxPoint x="324" y="249" as="targetPoint" />
          </mxGeometry>
        </mxCell>
        <mxCell id="00VoV6gP4ef_sgZay2wy-4" value="Shared drive" style="sketch=0;aspect=fixed;pointerEvents=1;shadow=0;dashed=0;html=1;strokeColor=none;labelPosition=center;verticalLabelPosition=bottom;verticalAlign=top;align=center;fillColor=#00188D;shape=mxgraph.mscae.enterprise.shared_folder" parent="1" vertex="1">
          <mxGeometry x="122.9" y="199" width="60.2" height="70" as="geometry" />
        </mxCell>
        <mxCell id="00VoV6gP4ef_sgZay2wy-19" style="edgeStyle=none;rounded=0;orthogonalLoop=1;jettySize=auto;html=1;" parent="1" source="00VoV6gP4ef_sgZay2wy-5" target="00VoV6gP4ef_sgZay2wy-18" edge="1">
          <mxGeometry relative="1" as="geometry" />
        </mxCell>
        <mxCell id="00VoV6gP4ef_sgZay2wy-5" value="Doc Submission Website" style="sketch=0;html=1;aspect=fixed;strokeColor=none;shadow=0;align=center;verticalAlign=top;fillColor=#3B8DF1;shape=mxgraph.gcp2.website" parent="1" vertex="1">
          <mxGeometry x="101" y="359.87" width="91" height="88.27" as="geometry" />
        </mxCell>
        <mxCell id="_ImDlbZ63Fv3AJCy4hCC-18" style="edgeStyle=none;rounded=0;orthogonalLoop=1;jettySize=auto;html=1;exitX=1;exitY=0.5;exitDx=0;exitDy=0;exitPerimeter=0;dashed=1;startArrow=classic;startFill=1;" parent="1" source="00VoV6gP4ef_sgZay2wy-7" target="_ImDlbZ63Fv3AJCy4hCC-8" edge="1">
          <mxGeometry relative="1" as="geometry">
            <mxPoint x="1025" y="225" as="targetPoint" />
          </mxGeometry>
        </mxCell>
        <mxCell id="00VoV6gP4ef_sgZay2wy-7" value="Azure Blob storage&lt;br&gt;&amp;nbsp;for archiv" style="verticalLabelPosition=bottom;html=1;verticalAlign=top;align=center;strokeColor=none;fillColor=#00BEF2;shape=mxgraph.azure.storage_blob;" parent="1" vertex="1">
          <mxGeometry x="837" y="74" width="50" height="45" as="geometry" />
        </mxCell>
        <mxCell id="00VoV6gP4ef_sgZay2wy-16" value="" style="verticalLabelPosition=bottom;html=1;verticalAlign=top;align=center;strokeColor=none;fillColor=#00BEF2;shape=mxgraph.azure.user;" parent="1" vertex="1">
          <mxGeometry x="34" y="219" width="47.5" height="50" as="geometry" />
        </mxCell>
        <mxCell id="00VoV6gP4ef_sgZay2wy-20" style="edgeStyle=none;rounded=0;orthogonalLoop=1;jettySize=auto;html=1;exitX=0.94;exitY=0.06;exitDx=0;exitDy=0;exitPerimeter=0;entryX=0;entryY=0.5;entryDx=0;entryDy=0;" parent="1" source="00VoV6gP4ef_sgZay2wy-18" target="00VoV6gP4ef_sgZay2wy-2" edge="1">
          <mxGeometry relative="1" as="geometry" />
        </mxCell>
        <mxCell id="00VoV6gP4ef_sgZay2wy-18" value="" style="sketch=0;aspect=fixed;pointerEvents=1;shadow=0;dashed=0;html=1;strokeColor=none;labelPosition=center;verticalLabelPosition=bottom;verticalAlign=top;align=center;fillColor=#00188D;shape=mxgraph.mscae.enterprise.shared_folder" parent="1" vertex="1">
          <mxGeometry x="234" y="339" width="60.2" height="70" as="geometry" />
        </mxCell>
        <mxCell id="BUz5Cs6KhjB94nJ8huxt-46" value="Future State" style="text;html=1;strokeColor=#2D7600;fillColor=#60a917;align=center;verticalAlign=middle;whiteSpace=wrap;rounded=1;fontColor=#ffffff;glass=0;shadow=0;sketch=0;fontStyle=1" parent="1" vertex="1">
          <mxGeometry x="71" y="455" width="107" height="24" as="geometry" />
        </mxCell>
        <mxCell id="_ImDlbZ63Fv3AJCy4hCC-2" value="MongoDB Atlas" style="dashed=0;outlineConnect=0;html=1;align=center;labelPosition=center;verticalLabelPosition=bottom;verticalAlign=top;shape=mxgraph.webicons.mongodb;gradientColor=#DFDEDE" parent="1" vertex="1">
          <mxGeometry x="1135" y="49" width="62" height="70" as="geometry" />
        </mxCell>
        <mxCell id="_ImDlbZ63Fv3AJCy4hCC-5" style="edgeStyle=orthogonalEdgeStyle;rounded=0;orthogonalLoop=1;jettySize=auto;html=1;exitX=0.5;exitY=0;exitDx=0;exitDy=0;exitPerimeter=0;entryX=0;entryY=0.5;entryDx=0;entryDy=0;entryPerimeter=0;dashed=1;" parent="1" source="_ImDlbZ63Fv3AJCy4hCC-3" target="00VoV6gP4ef_sgZay2wy-7" edge="1">
          <mxGeometry relative="1" as="geometry" />
        </mxCell>
        <mxCell id="6wWtexQI0jpHRcs54LzX-2" value="PDF/TIFF and OCR text Files" style="edgeLabel;html=1;align=center;verticalAlign=middle;resizable=0;points=[];" vertex="1" connectable="0" parent="_ImDlbZ63Fv3AJCy4hCC-5">
          <mxGeometry x="-0.1379" y="1" relative="1" as="geometry">
            <mxPoint as="offset" />
          </mxGeometry>
        </mxCell>
        <mxCell id="_ImDlbZ63Fv3AJCy4hCC-7" style="edgeStyle=orthogonalEdgeStyle;rounded=0;orthogonalLoop=1;jettySize=auto;html=1;exitX=1;exitY=0.5;exitDx=0;exitDy=0;exitPerimeter=0;" parent="1" source="_ImDlbZ63Fv3AJCy4hCC-3" edge="1">
          <mxGeometry relative="1" as="geometry">
            <mxPoint x="739.5" y="246.75" as="sourcePoint" />
            <mxPoint x="837" y="246.75" as="targetPoint" />
          </mxGeometry>
        </mxCell>
        <mxCell id="6wWtexQI0jpHRcs54LzX-3" value="Index, metadata&lt;br&gt;, File Path" style="edgeLabel;html=1;align=center;verticalAlign=middle;resizable=0;points=[];" vertex="1" connectable="0" parent="_ImDlbZ63Fv3AJCy4hCC-7">
          <mxGeometry x="-0.2308" relative="1" as="geometry">
            <mxPoint x="8" as="offset" />
          </mxGeometry>
        </mxCell>
        <mxCell id="_ImDlbZ63Fv3AJCy4hCC-3" value="ABBY Export Script - C#" style="verticalLabelPosition=bottom;html=1;verticalAlign=top;align=center;strokeColor=none;fillColor=#00BEF2;shape=mxgraph.azure.script_file;pointerEvents=1;" parent="1" vertex="1">
          <mxGeometry x="631" y="216.25" width="47.5" height="50" as="geometry" />
        </mxCell>
        <mxCell id="_ImDlbZ63Fv3AJCy4hCC-9" style="rounded=0;orthogonalLoop=1;jettySize=auto;html=1;" parent="1" source="_ImDlbZ63Fv3AJCy4hCC-6" target="_ImDlbZ63Fv3AJCy4hCC-8" edge="1">
          <mxGeometry relative="1" as="geometry" />
        </mxCell>
        <mxCell id="_ImDlbZ63Fv3AJCy4hCC-26" value="PW" style="edgeStyle=none;rounded=0;orthogonalLoop=1;jettySize=auto;html=1;startArrow=none;startFill=0;" parent="1" source="_ImDlbZ63Fv3AJCy4hCC-6" target="_ImDlbZ63Fv3AJCy4hCC-25" edge="1">
          <mxGeometry relative="1" as="geometry" />
        </mxCell>
        <mxCell id="_ImDlbZ63Fv3AJCy4hCC-28" value="ArchLink" style="edgeStyle=none;rounded=0;orthogonalLoop=1;jettySize=auto;html=1;startArrow=none;startFill=0;" parent="1" source="_ImDlbZ63Fv3AJCy4hCC-6" target="_ImDlbZ63Fv3AJCy4hCC-27" edge="1">
          <mxGeometry relative="1" as="geometry" />
        </mxCell>
        <mxCell id="_ImDlbZ63Fv3AJCy4hCC-39" style="edgeStyle=none;rounded=0;orthogonalLoop=1;jettySize=auto;html=1;entryX=0;entryY=0.5;entryDx=0;entryDy=0;entryPerimeter=0;startArrow=none;startFill=0;" parent="1" source="_ImDlbZ63Fv3AJCy4hCC-6" target="_ImDlbZ63Fv3AJCy4hCC-37" edge="1">
          <mxGeometry relative="1" as="geometry" />
        </mxCell>
        <mxCell id="6wWtexQI0jpHRcs54LzX-6" value="XYZ" style="edgeLabel;html=1;align=center;verticalAlign=middle;resizable=0;points=[];" vertex="1" connectable="0" parent="_ImDlbZ63Fv3AJCy4hCC-39">
          <mxGeometry x="0.1113" y="1" relative="1" as="geometry">
            <mxPoint as="offset" />
          </mxGeometry>
        </mxCell>
        <mxCell id="_ImDlbZ63Fv3AJCy4hCC-6" value="Azure Service Bus-&lt;br&gt;Doc-Export-Queue" style="sketch=0;aspect=fixed;html=1;points=[];align=center;image;fontSize=12;image=img/lib/mscae/Service_Bus.svg;" parent="1" vertex="1">
          <mxGeometry x="840" y="221.75" width="50" height="50" as="geometry" />
        </mxCell>
        <mxCell id="_ImDlbZ63Fv3AJCy4hCC-12" style="edgeStyle=orthogonalEdgeStyle;rounded=0;orthogonalLoop=1;jettySize=auto;html=1;dashed=1;" parent="1" source="_ImDlbZ63Fv3AJCy4hCC-8" target="_ImDlbZ63Fv3AJCy4hCC-11" edge="1">
          <mxGeometry relative="1" as="geometry">
            <mxPoint x="1089" y="183.5" as="sourcePoint" />
          </mxGeometry>
        </mxCell>
        <mxCell id="_ImDlbZ63Fv3AJCy4hCC-13" style="edgeStyle=none;rounded=0;orthogonalLoop=1;jettySize=auto;html=1;dashed=1;" parent="1" source="_ImDlbZ63Fv3AJCy4hCC-8" target="_ImDlbZ63Fv3AJCy4hCC-2" edge="1">
          <mxGeometry relative="1" as="geometry" />
        </mxCell>
        <mxCell id="_ImDlbZ63Fv3AJCy4hCC-8" value="ASA-Document-Archive-Service" style="aspect=fixed;html=1;points=[];align=center;image;fontSize=12;image=img/lib/azure2/compute/Function_Apps.svg;" parent="1" vertex="1">
          <mxGeometry x="1016.57" y="168.5" width="68.85" height="60.75" as="geometry" />
        </mxCell>
        <mxCell id="_ImDlbZ63Fv3AJCy4hCC-11" value="ImageRight" style="shape=image;verticalLabelPosition=bottom;labelBackgroundColor=default;verticalAlign=top;aspect=fixed;imageAspect=0;image=data:image/png,iVBORw0KGgoAAAANSUhEUgAAADgAAAA4CAYAAACohjseAAAAAXNSR0IArs4c6QAAAARnQU1BAACxjwv8YQUAAAAJcEhZcwAADsMAAA7DAcdvqGQAAAamSURBVGhD7ZpbbFRVFIb/ubVT2ilTphdabtOOUCghQJVLIRiNmBAURRHjk/pgAkbBF6OxTz6p8cGY8AIPAmqMicEHNVbkEqBSGi4FWsqlhbbUttMbvTLTznQ6U9faZ9eemeG0pe1MnDpfsnM2q/vMnP/stddeaw86u90+glmMXl5nLXGBsU7YGgw8+wVGRgLyX1NjTa4NB/YWYVF6srQo1Lb04f1D5eKqhscd2FOENXk2aVHoeujFvoPluHCnXVoUkhIMNH4Ttq7JkZYxHA6H7CnEXTTWiQuMdSISZHKzLNizbTnSU83SotDn9qLsdoe4qkk2m7C5IAs2S/B4r8+PslvtaO8dkBYFg14vxi+wBQcxZs+uLbKnEBGBeh2QYDRAR1c1juxUfP7mU+KqpqV7AMVHr6D6725pUUhLSRTj1y3LkBYFz5Afn3x7GaU326RljKETH8ueQkRcNECvzENvf5AeRN2GhgNINBkwJ9EY1Mxk8/kDYeN5Bk1Gfdj4JGp++pLQ8dxCiQeZWCceRWeShZSS7X+xQFzV9A/4cPxqM9p7BqVFgVOybU8uDBs/7B/B8YomNLS7pGWMS4fekT2FqAo0UHhNSTLByGFWxXxrEopfX438hVZpUehzD+GznypxvaFLWhQSTXoU716LjcuDoyuzYe1K2VOIqoty5OOH5iRa3foHfWIv5H1T3ay0TXBkDB3f4xqCmWY3dDy3UOJBJtaJR9FokDnXjA9fWYVlC+ZKi4LbM4xjZQ2ob3soLQoJlN28tjmXglLweGbX8+tlT+E/IZCjq82SiARK2dSkUsTdv6MAKxenSYuCl1K+A7/eREV9cHRlWo99IHsKYQL3f/0bDBTF9SGhPFJU1Hai9HY77W0BerHSKGHRfJSxaUWWtChwZN138AJOVTqlZQzD2WLZUwgTWHWrFonkAkZWGQW+OVGDr36pFhUCbyNqZkLg/y/IjM5gY8dD/Hm1RZQsAek7nIUsyUihDCITyVSycCnzKPyBAN0XQGVDN27c74Hb60NANTvrlqZjY34mjHT/kZO1EZ1Bg9Vq/VT2Be++t0+kUvxwX/5chfNUUV+s7cA1WtDdLg/VbkasWGQVeaLRoCVwBF56iDJaWyVXmnC6yikq+Ys1nbhEay6TUjMWyS/oOn1ueU2HyC9D1yBHy9W5NjFOncl09ntwp6lHfA+/BHXruVEi71bQnMFz1a346MglkQibjDpkpc3BG1vy8NzqHCym5JfFaQWiEXpS/nInVeoVdQ/w3am7qGvrp5RsWPydjzM4OnLhOt4McnTNTksSRa4aFv721nyssgdHV2b704WypzDhGkxJohmjJHjXJjuKyDU5s+c3Ol6U1el04gVk0UwV5qVjZ5EdhY50WMxGcZwxWVhwc9cAap39Qa2O9kVrcgLyad8MbaFoCuTzFBZiz7SgiNbAbtpYly+wiuMFFjAZ+HiCD4Z2bFiCZ1ZlwzE/VSTVjyNyumgK5Gw9h9zjZXq4nRuXYB5l9kZy1ceFl2kqeQELfGvrMiydbwlzuUiiKTBn3hy8RMLW52eI3w6EW05y5tSMums2fV6hw4bt6xajICQziSSaAtm1XqV190R2qnC16cKfwSJfWL+IgsM8aZ0avG119nnQ1OkKa6FoRlE9See9i4PJVGbuUfgpHXN5h8V2YKJMaaIoqgU/jj0zhVw/QVrGqD66V/YUNGeQRYmtYIbEMaPuyuF/OvAL4vOYyvvdYS0UTYGzhbjAWCcuMNbRFMhbhG948qF7MnASzpX7TH7mRGgKHCJxfMDK9SA/2HQR4khYv9sn9rxooSmwscOFw6dqcbupVxSv04V/G3RSZfBjaZ2oCaOFpkAuLMupYOW6sLKhK6iyfxz4Hr63pqUPp6kC/+tWGxofkVJFCk2BfCzAtdjvVJGXXG6iat5La5JPvsIrby2UNTeCXvcQSqvb8MO5e6hp7oNr0CdHRB5NgaN09npw8W4HDpbcEccY/FPzZOHzS3b178/cw5kqJ9p7B0WQiSYTCuSZbOx048yNVpyjVnW/R/z+rj5ECoX/5qUgdZfcku87S27OlfiAl91cDooSmgI5x+azUW7sms5uN05ca8Yfl5vh8vjgH8dPed2xGD50Ona+HvWt/fSihv/9vJlM4CdCs1ziE7Rqmi12yVEtXIlnzDUjj6ry8QpgFshrr/mBCy20jgepRFLPHP8/Gke2RVQVh6dQLo1HTJ1sT4VJnWxz3aanijcaTcdNPAZdddNvoYTN4Gxjwiga68QFxjbAPz82apiO4TyNAAAAAElFTkSuQmCC;" parent="1" vertex="1">
          <mxGeometry x="1023" y="53.5" width="56" height="56" as="geometry" />
        </mxCell>
        <mxCell id="6wWtexQI0jpHRcs54LzX-10" style="edgeStyle=none;rounded=0;orthogonalLoop=1;jettySize=auto;html=1;startArrow=none;startFill=0;dashed=1;" edge="1" parent="1" source="_ImDlbZ63Fv3AJCy4hCC-14" target="6wWtexQI0jpHRcs54LzX-7">
          <mxGeometry relative="1" as="geometry" />
        </mxCell>
        <mxCell id="_ImDlbZ63Fv3AJCy4hCC-14" value="ASA-Document-PW-Integration-Service" style="aspect=fixed;html=1;points=[];align=center;image;fontSize=12;image=img/lib/azure2/compute/Function_Apps.svg;" parent="1" vertex="1">
          <mxGeometry x="1242" y="276.63" width="69" height="60.88" as="geometry" />
        </mxCell>
        <mxCell id="_ImDlbZ63Fv3AJCy4hCC-17" value="" style="shape=image;verticalLabelPosition=bottom;labelBackgroundColor=default;verticalAlign=top;aspect=fixed;imageAspect=0;image=data:image/jpeg,/9j/4AAQSkZJRgABAQAAAQABAAD/2wCEAAkGBxEQEBUTEBIVFhAWFxYWFRUVGBAWFRgXFxYYGBYVFhUYHSghGB0lGxUXITEhJykrLi4uFx8zODMsNygtLisBCgoKDg0OGxAQGy8mICUtLS8vMi4tLS0vLS8tLy0tLy04Ly0tLSstLy0tLS0tLy0tLTUtLS0tLS0tLS0tLTIrLf/AABEIAKMBNgMBIgACEQEDEQH/xAAbAAEAAwADAQAAAAAAAAAAAAAABQYHAQMEAv/EAD8QAAIBAQQGBQoFBAEFAAAAAAABAgMEBRExBhIhQVFhInGBkaEHExQjMkJScrHBYpKi0eEzgsLwsiRDU4Px/8QAGwEBAAMBAQEBAAAAAAAAAAAAAAQFBgMCAQf/xAA0EQABAwIDBQcDAwUBAAAAAAABAAIDBBEhMVEFQWFxgRITkaGx0fAiweEGIzQyM2Jy8ST/2gAMAwEAAhEDEQA/ANxAARAAEQABEAARAAEQABEAIi/L/oWOGtWl0n7MI7Zy6lw5vBHprXPPZaLleXOa0XcbBS5A3vpXZLK3GdTWqL3IdKXU90e1ozy/dL7Vam4xbpUvgi9rX45ZvqWCIGnQLaDZeF5T0Huqqbam6IdT7e/grneHlHrybVCjCK3Obc5dywS8SBtGk1vqe1aZrlHVh/xwF3XJaLR/RpSkviwwj+eWC8SYpaLypTXn5QeG1wi2+yTwS7EdKqpodnxmSSwt1cToMzc9OOAw4wx1lW8BpOPQc8Pmigadntdp96clxcpfVvad70erreupN4+JbowSWCy8BgYif9aVZfeCNjW6EFx6kOaPAdTmtFF+nqcN/cc5x1vbysfMlUmda2Wd4ecqwe7Cc13NPae6x6YW+l/3tePCajL9WfiWSvZ4zi4zWKf+4x4EO9Ea003RcZ4e7jqzXDFSwXju7DR7I/UFLtEGOZoY/Q2II1B3cR4E7qqu2VU0pDoXOc3zHMZHoMdApW7vKRtwtNHD8VN4/ol+7LhdN92e1LGjVjJ745SXXF7UY/bruqUXq1acoP8AEmsep5PsPGoSjJSg3GS2qUW011NZFvLs6GQXZh5j5yKgx7QmjNni/kfnRb8DMNH9PqtLCFrTqQ/8iw149ayku59Zolgt1KvTVSlNTg8mvo1mnye0qKilkgP1DDUZfOBVtBUxzD6Tjpv+cQvWACOpCAAIgACIAAiAAIgACIAAiAAIgACIAAiAAIgACIAVbTPSZWKGpDB2ia6KzUY5a8l9Fva5M6RROkcGNzK8SSNjaXOyC+dL9LIWNOnTwnaWss4wx96fPgjL69WpWm6lWTnUlnKWf8LkfCTlJyk25Nttva23m2y4aJ6Ju0YVa2MaG5ZSqdXCPPu4mgjjho4ySeZ3ngPYddVQPfLWSADoNw4/nw0UPclwVrVLClHor2py2QXbvfJGg3PohZqGEprztTjJdFP8MMu/Fk/Z6EacVCEVGC2JJYJHhvO8PN9GPtb3wKPaG1yxhe49lo8Tw1J4DBXFJs5oIFru9Pmua4vO8FTWpD2/CKK89ueZ9vbteYwPzSvr5KuTtuwAyGn516LTQxCJtgvfdd1661p4qG5LN/wSk7ootYamHPGR3Xfh5qGGWqu/f4nqNfR7NpmQNBaHEgEkgG9+eQ0tusqyaokLziQqleNhdGWGcXk/3PPQrSpyUoPBr/dvIn9IMPNrjrbPv9ivNGX2lC2kqi2I2GBHC/ngVZU8hkju7krPZrRTtFNqUU90oySa7nmiuX1oNTmnKzPUn8MsXF9Tzj4o4oVpU5KUXg1/u3kWewW2NWOK2NZrganY22nSfTezx4O429R4YZVddQMzIuPMdc1jV5XbUozcKsHGS3PfzTya5o5ua969iqa9KWx+1B+zNcGuPPNGxXrdVK1Q1K0cVua2Si+MXuMs0i0fqWSeEttN+xNZPk+EuRtKasZUDsPGOm48vbPRZmoo3wHvGHDXePnhqtL0fvyjbKWvSeDXtwftRfB8Vwe8lzCbtt9Wy1o1qLwks08pR3xlyZsdxXvTtlGNWnv2Si84yWcX/u1NMrK2j7g9pv8ASfLh89VY0dYJh2XYOHnxUmACCpyAAIgACIAAiAAIgACIAAiAAIgACIAAiAAIo++7zhZaE608orYt8pP2YrrZi1rtVS0VZVarxnN4vguCXBJbCyeUa9/PWlUIPoUfa4Obz7ls69Yh7ku2VprQpQzk9r+GK9qXYvHBGgoYBBF3jsCRfkFQ10xml7tuQNuZ+YKc0K0c9Jl5yqvUQeXxy+HqW/uNOhFJYJYJbElkdVjssKNOMKawhFYJfudV5WrzcMVm8ijr60O7UrzZrQeg9z+FcUlN3bQxuZz5+wXTeVv830Ye39CAe3a8zlvHa8zlI/N6+vkrJO07ADIafk7ytDFE2JtguBgfWBzgQLrpdey77wdLotYw+nUSEr3pLJtvgQeBxgWlNtmqgj7ttiBlcXtyxHndR300bz2iu222p1ZYvYlkuB5WjsaOGiBJK+V5e83JzK7tAaLBdTR9UK0qclKLwa8evkGj4aDHlpDm4FdM8CrXd9tjWjitjWa4fwc2+w069OVOrHGEu9cGnuaKtZrRKnJSjmu59Zb6NVSipLJo3OytpGpZ9WD22v7++m7AhU9XTd2cMj8ssd0huedkrOnLbHOEvijx6+KGid+ysNoTb9RPCNRct0lzWPdiadpPdCtdBxWHnY9Km/xcMeDy8dxjtppNNprBptNPNNbGmbelmbVRFr88j7/N6ytVC6mlD2dPb5uW8Qkmk08U9qayae8+yk+TW+XVoys8306Ps8XTeX5Xs6nEuxRTRGKQsO75fqruGUSsDxv+W6IADkuqAAIgACIAAiAAIgACIAAiAAIgACIR9+XgrNZqtZ+5Ftc5PZFdsml2kgUXyqW3VoU6Ke2pJyfywWT/ALpRfYdqaLvZWsO8+W/yXGol7qJzxuHnu81nVLGTcpPGTbbbzbe1t9pp3k8uvzdF1pLpVNkeUYv7yXgjObBZ3OcYR9qTUV1t4L6m4WSzxpU404+zCKiupLAt9qTEMDBv9B+VU7Mhu4v09T+F3kJpA9sFuwl9ibIy+rO5Q1lnH75mQ2xG6Sika3gfAgnyBWjpnBsoJ+XwUEfSRwjk/Pbq3K6bRWcXgjq9KlyO6tVS2NYnV6RH4fofRlkujRh/SuPSpch6TLkc+kR+H6D0iPw/Q+9F6t/iuPSJcj59IlyPv0iPw/Q4doj8P0PvRLf4rmjUcscT7ZxSqJ5LA+mfd68nPJdbLJcP9BcnLDvK5qtvBZ7kW6w0PN04x4Lxe1/U0P6ejJnc/cG28SCPIFQ69w7sN4/b8r0mZeUK6/NV1ViuhVxb5SXtd6wfXiaaQGmlh89Y57OlDpx/tz/S2bqil7uYHccD1VBVxd5ERvGI6LL9Hrx9FtlKrjhBS1Z/LLZLHqxx7DbzALTE2XRK3efsVGbeMtRRk9+tDoNvrcce0nbVjwbJ0+4+6gbLkxdGeY9D9lNAAplcIAAiAAIgACIAAiAAIgACIAAiAAIhlXlNra9tjHdCnFYc5OTb7tXuNVMa04nrXlX5ai7qcfuWWyxeYnQH7D7qu2o60IGpH3P2Xq0FsynbaeOUdaX5U8PFo1szbyaQTtE3vVN+Mo/saSedpuvPbQD3XvZzbQ31JQAFepygrzu/V6UF0N64fwR5bSCvK79XpQ9neuH8GQ2zsfsXngGG8acRw1G7MYXtYU9Rf6XZqMnTTzR8+jx4fU7QZm6ndojeur0ePD6j0ePD6naBcp2narq9Hjw+pw7PHh9TuOGfQSvvadquqMEsgz6ZN3Xd2p05rpblw5vmTqGikrJOwzqdB8yG/wASOcswjF3JdV26nTmunuXwksAb+mpo6eMRxjAefE8fgwVPJI6R3ach11aalFxeTTT6nsZ2A7rwsIt1HUlKLzi3F9jw+xoHkrr42apB+5UxXVKK2d6feU/SmCVrrpZa8/F4lg8k0+naY8VSfdrr7mjrfrpS7kfMe6z9H9FUG/7D19lo4AM4tAgACIAAiAAIgACIAAiAAIgACIAAiGMaZrC8rR80PGnBmzmR+USjqXhKXxxpy/Tq/wCBZ7KI74/6n1CrdqC8IOjh6FSvkzfr6nyf5I0cy7yd1tW1pfHCUfpL/E1E57SFp+gXXZ5/YHMoACApqHDRyAigbxsGr0o+z9P4PAWtrHPIr15WdU54LJ7VyMZtvZTYP34v6ScRoTpwPkeGVjTTl30uzXlAODOqYhww2TF1WDDCc8/dXDr5k2hoZKuXu2dTuA+ZDeeFyPEkjYxcrm67u1cJzXS3Lh18yWAP0ClpY6aMRxjDzJ1PH/gwVRJIXuuUABIXhAAEWNaWP/rK/wA8ic8k69baH+Gn4uf7FYvqv5yvVn8UpPscnh4Fx8lFHCnaJ8Zwj+WLf+Roqz6aQg6NHmFn6b6qwEauPkfdX8AGdWgQABEAARAAEQABEAARAAEQABEAARDOfKrZMJUKyW6UJPq6UfrI0Yr2nF3ekWKoksZQ9ZHrhjiu2Lku0lUUndztPTxUasj7yFzRpfwxWZ3DbPM2ilU3RlFvqyl4Nm2mA2eRsOiF5ekWWDbxnDoT44xyfbHB95YbViwa8cvv7qBsuUfUzr7qdABSq4QABEIK/X04/L92TpA3++nH5fuyn29/Cdzb6hSqP+70KipVsJJYHZieSo/WLsPRiYUhW5aLBctkzdN444U55+6+PJ8yEbPZd1idWWOUFvLHZcs8dQO4FycCNxHHS2d93K4PCdjCw9tWcAH6CVSoAAiEfftr8zZqtTeovD5nsj4tEgUbyk3jhGFCL2t68+pbIp9bxf8AajvTRd7K1u7fyC41Endxl3y6zuuzVvJ5Y/NWCDawc3Kb7XhH9MYmVU6Eq1SFKHtTlGC65PDE3SyWeNKnCnD2YRjCPVFJLwRa7VksxrNTfw/Kqtlx3e5+gt4/hegAFGrtAAEQABEAARAAEQABEAARAAEQABEODkBFiekt1eh2udNf030qfyyyXY8V2EtoPfCs9o1ZvClVwjLgpe5LvbXbjuLbp3cXpVn16axr0sZRwzlH3o+GK5rmZTQqYmjgkbV09nZ5H7H781np2Glnu3LMfcfZb+Cp6EaQefpqlVfroLY3nOK382t/fxLYUEsTonljtyvYpGyNDm5FAAc10Qr+kD9ZH5fuywFc0kfrI/L92VG3f4TubfUKXRf3ehUNUfTXYd+J5aj6a7DvxMQQrojAL6bJq5LdHBUnsax1XxxeXWQTZ7LssMqsuEFv+3WWGzJJo6gGEXJwI1GZ5ZXvutvyUeojY5h7eAVtABvlRIAAi89rtMKVOU6jwhFNt8kYzfV4StFadWWcnilwWUY9iSLNp3pAqsvMUn6uL6bWUpLd1L69RTaFCderGlTWM5tRivu+SzfUX2zqbu294/AnyGf58FRbQqO27u25DzOX48VavJndPnK0rTJdCn0Yc5SW19kX+pGoEfct2QstCFGGUVte+UntlJ9bJAqaufvpS/dkOX5zVrSwdzEG79/P5ggAI6kIAAiAAIgACIAAiAAIgACIAAiAAIgACIZf5QNG3RqO00Y+qm/WJe7N+98svB9ZqB11aalFxkk4tNNPamnsaaJFNUOgf2h1Go+fNy4VNO2dnZPQ6FYXY7VKElKDalFpprNNGqaLaSwtcdSeEbQltjulh70f23FJ0v0TnZG6tHGVmb63Tx3PjHg+/i6/ZrQ4tOLaknimm00+Ke4vJooqyMOaeR04H2/6qSKWWkkLXDmNeI91vQKLo/pupJQtex5KqlsfzpZda8C60qkZxUotSi9qaaafU0UM0D4XWePYq9imZKLsK7StaTP1kflX1kWUrWk/9SPy/wCT/co9t/w3c2+oVjQ/3uhUHN9Ndh26x0ST1sTsxMX2VeHcvrEn7gvCOqqUtksXqvji8cOsruJ7bqsEqs9myKwxlw5LmT9mySx1AMQuThbUXF+WV77uKj1MbHRntmw1+eiuYB5Lwt9KhDXrTUY883ySzb6jeAEmwWeJAFyvWUPTDStYSoWeXKdReMYP6vu5RukumE66dOhjCjk370+vD2Vy/wDhTqlXgXNHs6xD5M9w9/bx0VRWbQFuzGeZ9vfw1StUNN0C0bdmh56tHC0TWyLzhHhyk83w2LiePQnQ903G0WpesW2nTfu8Jz/FwW7ryvx42hWh37UZw3nXhy115Z+qCjLT3sgx3DTjz0055AAVCtkAARAAEQABEAARAAEQABEAARAAEQABEAARAAEXxUgmmmk09jT2pp5poz7SfQR4urYlzlRbwx+RvL5X2PcaIDtBUSQuuw+xXGeBkzey8e4WAycoScZxcZrY4yTTT5p5EndV9V7M8aNRxW+OcX1xeztzNVvm4bPa1hXppyWU1smuqS+j2FEvbyfV6bbs01UjujLCM+r4X4dRdRV8Ew7MmHPJU0lDPCe0zHln4KWu3ygJ7LRSwfxU9q/JJ7O9kvUvexWuGCrRjJey5Ywaf92GJlFroVaEtWtTnCXCaa7m8z4jXPM+yaedpFsDpiPv5FeodqzROF8x0PzmFfqkdV4Yp84tNPqazR84lQu+9HSls2xea+6JmvfNJRxjLWe6O1PtMBtD9MVVPOGQNL2uyIGXB24czgRjqBraLbdNNEXyuDHDME+Y3m+gxvhvBM5ZKMZy6dSNOG+UpRj3Y5smK2k1hsy1Izxw92mnL9WWPaZXXtjnJyk8W/8AdnM6JWg1uzP01FSs+s3ecyPQb7Dpf0z9dt50zvoFm7r+p3X9Fe7z0+nLFWemor4pdKXWlkn3lPt1vnVk5VZynLjJ49i4Lkhd11Wq0v1FGcl8WGEPzvBFwubyc5StdT/1wb/VN/ZdpcXpqXQHxPv5gcVW/wDpqtSPAfOhKpdgsda0z83Qg5y34ZJcZSyius0rRXQ2nZcKtXCpaM0/ch8ieb/E+zAsdgsNKzwUKMIwgt0V4t73zZ6yrqtoPlHZZg3zPP2CsqagZEe07F3kOXuUABXqwQABEAARAAEQABEAARAAEQABEAARAAEQABEAARAAEQABEAARddWClskk09zSa7iEvHRWxVNsrPBPH3daH/BoA6Rvcw3abcl4exr8HC44rNtKrtpUG/NRcf7pv6tldT2gGppnEsF1lqkAPwV40buCzVsPO09bL3qi+jL5Y9HbJRwdOhBNZNrWl+aWLOQZ6tnky7R8StDRwxgX7IvyClQAQ1LQABEAARAAEQABEAARAAEQABEAARf/2Q==;" parent="1" vertex="1">
          <mxGeometry x="1306" y="122" width="100.8" height="53" as="geometry" />
        </mxCell>
        <mxCell id="_ImDlbZ63Fv3AJCy4hCC-23" style="edgeStyle=orthogonalEdgeStyle;rounded=0;orthogonalLoop=1;jettySize=auto;html=1;exitX=1;exitY=0.5;exitDx=0;exitDy=0;startArrow=none;startFill=0;" parent="1" source="_ImDlbZ63Fv3AJCy4hCC-20" edge="1" target="_ImDlbZ63Fv3AJCy4hCC-6">
          <mxGeometry relative="1" as="geometry">
            <mxPoint x="868" y="280" as="targetPoint" />
          </mxGeometry>
        </mxCell>
        <mxCell id="_ImDlbZ63Fv3AJCy4hCC-20" value="" style="shape=image;verticalLabelPosition=bottom;labelBackgroundColor=default;verticalAlign=top;aspect=fixed;imageAspect=0;image=data:image/png,iVBORw0KGgoAAAANSUhEUgAAAQwAAAAzCAYAAABi1zZfAAAAAXNSR0IArs4c6QAAAARnQU1BAACxjwv8YQUAAAAJcEhZcwAADsMAAA7DAcdvqGQAAA2sSURBVHhe7Z0JjBVFE8ebL8QQjAIKKFdEORJEFgLhFGUVMSrgrgQUOVZEOQQNh0QixICJ0SCiEkVQQFAIiUBQBIHldCMoKriscpkIQbkEOUwMXpjsN/+hRmfn1XT3vDnesNu/pLLd73XPtfNququqa6qVWwiDwSClWrVqVKq6bNu2TfyPygaDwaDEKAyDwaCNURgGg0EbqQ1j79694tFHH6VaJnXq1BEbN26kmiEsmCPKqFGjhujatSvVKqLqC+644w4qGYJibBh0j0Fh+PHdd99BmfhKr169qKUhCjp37sxeZ0c+//xzapnJ008/zfZx5JVXXqGWhmzgrmlVE0thlCtHGG3atKFaJpbCSO0IY/r06VTiUX2fC7p06SK+/PJLqmViKQzfEcakSZPErFmzqJaJpTCEpVSoVrWI4l6IeoQxbdo0Kvnj7HPdunXiq6++ssth8Nunsx9HFZSUlIhPP/3ULrup1CMM7njdkkbMCCMeuOvhFh24ftlK//79aat6vPfee+x2goqlGGmLcvLz89n+GGEYo6fBkDBjxoyhkh5FRUVUCoelC6iUPUZhGAwJUr169ayMzwUFBVTKLUZhGAwJ8vjjj1MpGE8++SSVsicKO4xSYUAb+onBYAhG0OmIw1133UWl7Il9SnLLLbeIrVu3+oqJwTAY9Ln++uulXkcVTzzxBJVyh5mSGAwJke10xCHstCSRKYnBYIiGbKcjDjfffLM9SsklysCtv//+m2o87du3p1JFuMAPN/n5+VS6xPfff2/L/v37RVlZmfj9999F48aNRevWre22uFgyvPtT2Vj8Qqm9x8Vx7tw5sXLlSnHgwAFx+vRp8csvv4irr75aNGjQwD7ePn362McelLQFbh09elQsXLhQnD17Vpw5c8b+G8V5cly8eFF89tlnYsuWLfb1hPz111+iefPmokWLFvbfe++9l1rLieNeCPt0xvXC7yksL7zwgnjuueeoFgwEbukEqeF6xRK4ZV0EapmJX/AHBN85LFq0qLxjx45sO7c89dRT1IOH6xNUVIEtCFwZPHgw29crBQUF5Tt37qSeeqQlcAvnOXDgQHY7XsnmPN0cPHiw3Jqbl9erV4/dvltq1qxZbg3Ly9etW0e9ebi+QcV7L3Btgshrr71GW/LHevhQyR9LibPb1xFLYdBW5Pj9dnFf5ExhYNuyNpxYT5jykydP0h4qwrUPKrILiu+4PjK54oortP9JIA0KI4nzdECfOnXqsNtUyYABA2grmXDtg4r3fLg2QcQaLdGW/BkxYgSV5FijenYfKtH9H8kURs5sGLAWq6YtXtavXy969+4t/vnnH/okWvyGnY888oh4/vnnqaYPpnPoh2M+duwYfZpeHnzwwVDnGcSo9/bbb9t9zp8/T58EY8WKFfbxxkUUBkKHHj16CEupUs2fVatWiePHj1PNn7Fjx1IpeXKiMIIqCjfffPONePPNN6kWLZZypdJ/TJ48Wbz//vtUyw4sHnrssceolk7w48OPMAywd0ycOJFq/nz00Udi9OjRVMueOJUGdy9ki44i/eSTT2wbEZSGCmt0RaXkuSy9JFAYuLhxs3jxYvHyyy9TLRyIWZk3bx7V0sXUqVNDKwsHa65uK0g/fv3116xGMX7guLHPtIKRypAhQ6jmz4cffmj/1VEYV111lW1wDkqVdaseOnRIvPHGG1SLhyNHjmjd2PBaTJgwwXaZ9e3blz7lgafi1KlTVEsHsNzPnj2bajy4Qa15re1lwcgAaQ1kwJLv513DNd2zZw/VouHVV19N3XV16NevH5XkOAoDo+8ff/zRLssYMWIElZIl5wqjdu3aYuTIkWLJkiX2j/Tnn38Wy5cvp2/98V7UadOmVRAV3vbePrgJcTx+dOrUSWzevNl2daLtnDlzxMcffyxVZFB0UBppYu7cueLChQtUywTuwJ07d9ouNRw72mO0JAsi+uKLL2yl4WX37t3i9ddfpxoP9rdgwQKxb98+8ccff9h/vf8bL7APua+r7P/K4W2v00cXnano2rVrbVe9g84o4/7776eSPpFMs2AV9SMuL4kjhYWF5WVlZdSjItaTjO3jCLYvg+vjFhXNmzdn+0EaNmxYfuLECWqZCVxoXD9HfvjhB2pZkaS9JHDjydyZzZo1o5Y8w4YNY/s54j1P68HAtnME95OlIKh1RYqLi9k+bvG7l7i2btGB66cSXFsdhg8fXqHfbbfdRt/IUV1Pr1iKkHrKSaWXBIZEDMPy8vLok4o89NBDVOKRPf3D8u233wrrZqdaJhgOInjJj/Hjx4uePXtSLZNNmzZRKbdg/o8AKT9UowE8iWvVqkW1TNznicCvd955h2o8zz77rG+A3t13322PRL106NDBtmFYCtz3XsoVDzzwAJXkONMRBwSwYTSqYtCgQVRKjpwpjCZNmlCJR/V9nAoD0aYybr31Vir5U79+fSplkpZFe9YIkkqZ1K1b1448ldG0aVNx++23Uy0T93kiilfGNddcIwYPHkw1nnHjxtnHVbNmTWGNbsSaNWvErl27bAUtU+C5Qsc7gnPgXMteJcIBdy2uR5Kk1ugZVchxNsiUkTUdETt27LBDbGXSsmVL6pGJztMjCWTGtW7dutneKO7c3OK3NAC4z1OlMPr3708lfzD6gO0ENpVFixZl5SlIilatWomOHTtSzR8/xaBjxwBR5MkIBE1bWOK0YWA+pILr5xYZXHu3yFDZT8LKddddR3uqSNI2DOsHyLaNStznOXXqVLaNIzNnzqSW0cPtzy06cP1kMmXKFOopp3bt2mx/iKVkqZU/paWlbF9OLmsbRpqJc7oD0uICTPI83V4ADnjLKhM605HVq1fbcSl+6Iwy2rVrl6jtxigMhrh/SGng5MmT9orgpKhKCqN79+7ixhtvpJo/KjuF7rQE9pykMAqDoSooDJ3goChRReZWJoURNFjLj6+//lppgAdJJgg2CoMBr4Cs7MArkST16tWjEs+ff/5JpcsfnWAtrIlatmyZHbQlE+QkUXHTTTeJe+65h2rxEurNZ4jK80sK4peEwwGRg/mKZDWq2HfJoYfqC7cpIjj9wLGHhTv3JBPoIDkN3tXqB6z8b731FtWyxzlPrFd58cUX7TIH4nKGDh1KtWgJcy846K7DKCws1HKJRs27776rVFSIm4FnS0XqEuhA0uwlUSXJOXXqFLWMlqS9JE2bNmXbOhIl8+fPZ/fhyOzZs6ll9HD7c4sOXD9O8JayXHDmzBn2eNxivCQxgSGejJ9++olKlzfNmjWjEk+U8SIqI6DKKOoGMRhpBNO8qN5SFpRrr71Wa1VsWIzCYFDd3EEiNaNaNh4HN9xwA5V4kF9TF4Qzy1ApYeRI1QHBZMOHD7dXzBYXF9On6UA3FDwukjB+GoXBoFIYS5cuVSZHBlg7gQQvo0aNSmXGLVX4PYxuOmBejPOcMmUKfZKJ6ppiVaoqsdLhw4f/zU+ClcIw9GHejlWwaUDXOxIXsJ/EbbA3CoMBhjqZVR/ZwmUGPDBz5kxbUQAoDsT9py2BjipbFdY5qEZIUBbIcYG0BC+99JIdKu7Xh1s85kZlZIVC8noNYOxD3AMyoyXtKnaDpQD33Xcf1XID3tsa94K0KqswvE+l3377zU4d56Bap4AfCX4s3hyM2C4UxTPPPEOfXAJPR7y5Ckl2kOchDWBthirdm5O6zxuRiOkKnu7eJEOlpaV2H04Z4QkoA/tBP6wWdoP8Gvj8gw8+oE8qApcsRh7Z5gdV3Qs66E5HMIrKVnSIfVpChlGWy9lLokpbj+NzC2L63VZkHB/Xj5O8vDzbw9GoUSP2e06WL19Oe/qPXGQNX79+Pduek3bt2tmvhMAaEe57TrznqTpHR7CPINdUlsY/7L0AuH5u0X3VAtdXV3TB75LrH4WXpNIqDNX+ObFGDNT7ErjAXLuwMmHCBNpDRXKhMEBRURHbJ6xwN+iyZcvYtmEEiZhkRHEvcG0c6dq1K7WSY03x2P66snDhQtqSHCx84/pHoTAq7ZREtrzcD+taUekSmHIgcUuUIPAKKf3SBIK+kNsiSjDVwfXz8vDDD0ea9Roh5dYPgWo8UdwLMnSNnaoEQip0s+XHOS2ptApDJ8mNDnDdWcNjqoVHFkGaKxDNi1cE6Lw7Q4c777xTmpcV30WhNJDtC7lgsWJTRlT3gh+69gsYkcMA+xBezakC+Wb9IoLDUmkVBgJokKEpCuABCHvTwasS5KmVNPiRw6io+vGpwKsZdOI3oDS8huEg4F2rcPvqJNGJ8l7wAiO2KgAO6LqoVeR6lFGpvSTISQlX3JVXXkmfZM/27duz2lbnzp3tUQryVaYdeDGseaqd8i6b8ywpKbHfEqfLjBkz7OsaJAM2Mp7hZUlYrwF3qi5R3gtudEcXYacjDrqv14hLYcS2+Iybv2IBj7O7/Px85eIzbhvAWQikmrs64BgxdD148OC/b4l3gzkuXIxt27b13acDkubC/QdB2Xl7O97dgaAZR/CmcQQWBUluojofbM9vqKnqi7euuxefqYjzPDmQmxP/I6Tfc94Uj+A4RIg6gvyhYYOjsr0XuMVnmBJBueqg844bXXTveyxk3LBhA9X0+0Hxc25cPEykCgP+aBW4gQyGyo7uatXKjFJhGAyGSxiFcUlhVNlIT4PBEByjMAwGgzZGYRgMBk2E+D+QEHh/wX5u6AAAAABJRU5ErkJggg==;" parent="1" vertex="1">
          <mxGeometry x="335" y="316" width="162.91" height="31" as="geometry" />
        </mxCell>
        <mxCell id="_ImDlbZ63Fv3AJCy4hCC-22" style="edgeStyle=orthogonalEdgeStyle;rounded=0;orthogonalLoop=1;jettySize=auto;html=1;exitX=1;exitY=0.5;exitDx=0;exitDy=0;startArrow=none;startFill=0;" parent="1" source="_ImDlbZ63Fv3AJCy4hCC-21" target="_ImDlbZ63Fv3AJCy4hCC-6" edge="1">
          <mxGeometry relative="1" as="geometry" />
        </mxCell>
        <mxCell id="_ImDlbZ63Fv3AJCy4hCC-21" value="3rd Party-Doc-to-Data Platform" style="shape=image;verticalLabelPosition=bottom;labelBackgroundColor=default;verticalAlign=top;aspect=fixed;imageAspect=0;image=https://www.softelligence.net/wp-content/uploads/2020/05/OCR-.png;" parent="1" vertex="1">
          <mxGeometry x="378" y="396" width="73" height="73" as="geometry" />
        </mxCell>
        <mxCell id="_ImDlbZ63Fv3AJCy4hCC-29" style="edgeStyle=none;rounded=0;orthogonalLoop=1;jettySize=auto;html=1;exitX=1;exitY=0.5;exitDx=0;exitDy=0;exitPerimeter=0;startArrow=none;startFill=0;" parent="1" source="_ImDlbZ63Fv3AJCy4hCC-25" target="_ImDlbZ63Fv3AJCy4hCC-14" edge="1">
          <mxGeometry relative="1" as="geometry" />
        </mxCell>
        <mxCell id="_ImDlbZ63Fv3AJCy4hCC-25" value="Property-Writer-Topic" style="outlineConnect=0;dashed=0;verticalLabelPosition=bottom;verticalAlign=top;align=center;html=1;shape=mxgraph.aws3.topic;fillColor=#5294CF;gradientColor=none;" parent="1" vertex="1">
          <mxGeometry x="1029.5" y="285" width="36.5" height="46" as="geometry" />
        </mxCell>
        <mxCell id="_ImDlbZ63Fv3AJCy4hCC-35" style="edgeStyle=none;rounded=0;orthogonalLoop=1;jettySize=auto;html=1;exitX=1;exitY=0.5;exitDx=0;exitDy=0;exitPerimeter=0;startArrow=none;startFill=0;" parent="1" source="_ImDlbZ63Fv3AJCy4hCC-27" target="_ImDlbZ63Fv3AJCy4hCC-30" edge="1">
          <mxGeometry relative="1" as="geometry" />
        </mxCell>
        <mxCell id="_ImDlbZ63Fv3AJCy4hCC-27" value="Arch-Link-Topic" style="outlineConnect=0;dashed=0;verticalLabelPosition=bottom;verticalAlign=top;align=center;html=1;shape=mxgraph.aws3.topic;fillColor=#5294CF;gradientColor=none;" parent="1" vertex="1">
          <mxGeometry x="1032.75" y="391.75" width="36.5" height="46" as="geometry" />
        </mxCell>
        <mxCell id="6wWtexQI0jpHRcs54LzX-11" style="edgeStyle=none;rounded=0;orthogonalLoop=1;jettySize=auto;html=1;dashed=1;startArrow=none;startFill=0;" edge="1" parent="1" source="_ImDlbZ63Fv3AJCy4hCC-30" target="6wWtexQI0jpHRcs54LzX-8">
          <mxGeometry relative="1" as="geometry" />
        </mxCell>
        <mxCell id="_ImDlbZ63Fv3AJCy4hCC-30" value="ASA-Document-ArchLink-Integration-Service" style="aspect=fixed;html=1;points=[];align=center;image;fontSize=12;image=img/lib/azure2/compute/Function_Apps.svg;" parent="1" vertex="1">
          <mxGeometry x="1248" y="387.39" width="68.85" height="60.75" as="geometry" />
        </mxCell>
        <mxCell id="_ImDlbZ63Fv3AJCy4hCC-36" style="edgeStyle=none;rounded=0;orthogonalLoop=1;jettySize=auto;html=1;exitX=1;exitY=0.5;exitDx=0;exitDy=0;exitPerimeter=0;startArrow=none;startFill=0;fillOpacity=93;" parent="1" source="_ImDlbZ63Fv3AJCy4hCC-37" target="_ImDlbZ63Fv3AJCy4hCC-38" edge="1">
          <mxGeometry relative="1" as="geometry" />
        </mxCell>
        <mxCell id="_ImDlbZ63Fv3AJCy4hCC-37" value="XYZ-Topic" style="outlineConnect=0;dashed=0;verticalLabelPosition=bottom;verticalAlign=top;align=center;html=1;shape=mxgraph.aws3.topic;fillColor=#5294CF;gradientColor=none;fillOpacity=93;" parent="1" vertex="1">
          <mxGeometry x="1032.75" y="502.36" width="36.5" height="46" as="geometry" />
        </mxCell>
        <mxCell id="6wWtexQI0jpHRcs54LzX-12" style="edgeStyle=none;rounded=0;orthogonalLoop=1;jettySize=auto;html=1;dashed=1;startArrow=none;startFill=0;" edge="1" parent="1" source="_ImDlbZ63Fv3AJCy4hCC-38" target="6wWtexQI0jpHRcs54LzX-9">
          <mxGeometry relative="1" as="geometry" />
        </mxCell>
        <mxCell id="_ImDlbZ63Fv3AJCy4hCC-38" value="ASA-Document-XYZ-Integration-Service" style="aspect=fixed;html=1;points=[];align=center;image;fontSize=12;image=img/lib/azure2/compute/Function_Apps.svg;fillOpacity=93;" parent="1" vertex="1">
          <mxGeometry x="1242" y="498.25" width="68.85" height="60.75" as="geometry" />
        </mxCell>
        <mxCell id="6wWtexQI0jpHRcs54LzX-1" value="Future State" style="text;html=1;strokeColor=#2D7600;fillColor=#60a917;align=center;verticalAlign=middle;whiteSpace=wrap;rounded=1;fontColor=#ffffff;glass=0;shadow=0;sketch=0;fontStyle=1" vertex="1" parent="1">
          <mxGeometry x="601.25" y="289" width="107" height="24" as="geometry" />
        </mxCell>
        <mxCell id="6wWtexQI0jpHRcs54LzX-4" style="edgeStyle=none;rounded=0;orthogonalLoop=1;jettySize=auto;html=1;exitX=0.5;exitY=1;exitDx=0;exitDy=0;entryX=0.57;entryY=1;entryDx=0;entryDy=0;entryPerimeter=0;startArrow=none;startFill=0;" edge="1" parent="1" source="6wWtexQI0jpHRcs54LzX-1" target="6wWtexQI0jpHRcs54LzX-1">
          <mxGeometry relative="1" as="geometry" />
        </mxCell>
        <mxCell id="6wWtexQI0jpHRcs54LzX-7" value="&lt;span style=&quot;color: rgb(33, 33, 33); font-family: Inter, system-ui, -apple-system, BlinkMacSystemFont, &amp;quot;Segoe UI&amp;quot;, Roboto, Oxygen, Ubuntu, Cantarell, &amp;quot;Fira Sans&amp;quot;, &amp;quot;Droid Sans&amp;quot;, Helvetica, Arial, sans-serif; text-align: left; background-color: rgb(255, 255, 255);&quot;&gt;aigi-ob-pds-property-policy-adapter&lt;br&gt;Quote/Coverage&lt;br&gt;&lt;/span&gt;" style="shadow=0;dashed=0;html=1;strokeColor=none;fillColor=#EF8F21;labelPosition=center;verticalLabelPosition=bottom;verticalAlign=top;align=center;outlineConnect=0;shape=mxgraph.veeam.2d.restful_apis;" vertex="1" parent="1">
          <mxGeometry x="1581" y="278.6" width="44.8" height="44.8" as="geometry" />
        </mxCell>
        <mxCell id="6wWtexQI0jpHRcs54LzX-8" value="Arch Link" style="shadow=0;dashed=0;html=1;strokeColor=none;fillColor=#EF8F21;labelPosition=center;verticalLabelPosition=bottom;verticalAlign=top;align=center;outlineConnect=0;shape=mxgraph.veeam.2d.restful_apis;" vertex="1" parent="1">
          <mxGeometry x="1584" y="401" width="44.8" height="44.8" as="geometry" />
        </mxCell>
        <mxCell id="6wWtexQI0jpHRcs54LzX-9" value="XYZ Service" style="shadow=0;dashed=0;html=1;strokeColor=none;fillColor=#EF8F21;labelPosition=center;verticalLabelPosition=bottom;verticalAlign=top;align=center;outlineConnect=0;shape=mxgraph.veeam.2d.restful_apis;" vertex="1" parent="1">
          <mxGeometry x="1581" y="509" width="44.8" height="44.8" as="geometry" />
        </mxCell>
      </root>
    </mxGraphModel>
  </diagram>
</mxfile>
